<?xml version="1.0" encoding="UTF-8"?>
<svg version="1.1" xmlns="http://www.w3.org/2000/svg" width="1000" height="1000">
<path d="M0 0 C2.08275431 -0.0064675 4.16550782 -0.01319833 6.2482605 -0.02017212 C10.59293711 -0.03203972 14.93753494 -0.0358648 19.28222656 -0.03466797 C23.63298445 -0.03450696 27.98331436 -0.04816804 32.33398438 -0.07568359 C73.97724083 -0.33472833 115.35317094 1.82975179 156.2734375 10.05078125 C160.64626838 10.92349211 165.02231836 11.77716742 169.40093994 12.62017822 C198.04825618 18.1457102 226.31763403 24.4071719 254.16210938 33.20947266 C261.38297979 35.48150594 268.6180009 37.7080618 275.85177612 39.93859863 C278.52524863 40.76434482 281.19738456 41.5943085 283.86938477 42.42480469 C285.52095544 42.9356783 287.17256502 43.44642619 288.82421875 43.95703125 C289.59393005 44.19729538 290.36364136 44.43755951 291.15667725 44.68510437 C294.87985079 45.90421099 294.87985079 45.90421099 298.7421875 46.3359375 C298.7421875 45.6759375 298.7421875 45.0159375 298.7421875 44.3359375 C300.66276042 43.65234375 302.58333333 42.96875 304.50390625 42.28515625 C306.83620586 41.36014116 306.83620586 41.36014116 309.19140625 39.84375 C311.72937053 38.34351384 314.07179193 37.43715635 316.8671875 36.5234375 C321.98071997 34.73370113 326.54620799 32.40406898 331.234375 29.703125 C335.52638812 27.36324246 338.81798642 26.05455458 343.7421875 26.3359375 C344.0721875 25.3459375 344.4021875 24.3559375 344.7421875 23.3359375 C346.3921875 23.3359375 348.0421875 23.3359375 349.7421875 23.3359375 C349.7421875 22.6759375 349.7421875 22.0159375 349.7421875 21.3359375 C351.3921875 21.3359375 353.0421875 21.3359375 354.7421875 21.3359375 C354.7421875 20.6759375 354.7421875 20.0159375 354.7421875 19.3359375 C357.71763191 18.20092273 360.69815278 17.07984554 363.6796875 15.9609375 C364.92588867 15.48527344 364.92588867 15.48527344 366.19726562 15 C371.03931524 13.19129664 375.74581116 11.77130654 380.83422852 10.84130859 C383.04937018 10.36454696 383.04937018 10.36454696 385.7421875 8.3359375 C387.60406576 7.9182434 389.48212035 7.56937812 391.3671875 7.2734375 C394.86355838 6.97084924 394.86355838 6.97084924 397.7421875 5.3359375 C399.59506252 5.26367248 401.45052628 5.2521253 403.3046875 5.2734375 C404.31660156 5.28246094 405.32851563 5.29148437 406.37109375 5.30078125 C407.15355469 5.31238281 407.93601562 5.32398438 408.7421875 5.3359375 C408.7421875 4.6759375 408.7421875 4.0159375 408.7421875 3.3359375 C411.3821875 3.0059375 414.0221875 2.6759375 416.7421875 2.3359375 C416.7421875 1.6759375 416.7421875 1.0159375 416.7421875 0.3359375 C424.6621875 0.3359375 432.5821875 0.3359375 440.7421875 0.3359375 C439.7421875 5.3359375 439.7421875 5.3359375 438.7421875 7.3359375 C437.4221875 7.3359375 436.1021875 7.3359375 434.7421875 7.3359375 C434.7421875 7.9959375 434.7421875 8.6559375 434.7421875 9.3359375 C433.4221875 9.3359375 432.1021875 9.3359375 430.7421875 9.3359375 C430.7421875 9.9959375 430.7421875 10.6559375 430.7421875 11.3359375 C429.10704338 12.38669032 427.433682 13.37853261 425.7421875 14.3359375 C424.23305341 15.38542335 422.73330398 16.44850593 421.2421875 17.5234375 C417.35193986 20.27493509 413.38313243 22.80988218 409.3046875 25.2734375 C404.27328483 28.33093715 399.54493805 31.62164793 394.82421875 35.1328125 C390.30203195 38.3654023 385.62014871 41.33618062 380.93945312 44.33251953 C377.06311392 46.81888456 373.24033017 49.34531925 369.4921875 52.0234375 C365.9320415 54.55696467 362.28771071 56.87694944 358.5546875 59.1484375 C351.70191404 63.32004309 345.0066223 67.7002211 338.37939453 72.22119141 C336.94263029 73.19945945 335.49736457 74.16521722 334.05078125 75.12890625 C333.33019531 75.63035156 332.60960937 76.13179688 331.8671875 76.6484375 C331.27164063 77.05707031 330.67609375 77.46570313 330.0625 77.88671875 C326.87016853 81.39072756 327.60035867 87.09634342 327.57421875 91.546875 C327.5700293 92.25437393 327.56583984 92.96187286 327.56152344 93.69081116 C327.55164794 96.03090843 327.55176357 98.37082249 327.5546875 100.7109375 C327.55495941 101.52426544 327.55523132 102.33759338 327.55551147 103.17556763 C327.59277905 127.71820616 329.01612243 152.17228455 331.04827881 176.62393188 C333.77013601 209.42800852 334.92286042 242.17334751 334.9296875 275.0859375 C334.93068451 276.39260376 334.93168152 277.69927002 334.93270874 279.04553223 C334.93238779 282.74135267 334.92346014 286.43701812 334.91015625 290.1328125 C334.90894775 291.25345093 334.90773926 292.37408936 334.90649414 293.52868652 C334.90020996 294.54628052 334.89392578 295.56387451 334.88745117 296.61230469 C334.88363937 297.50471863 334.87982758 298.39713257 334.87590027 299.31658936 C334.7421875 301.3359375 334.7421875 301.3359375 333.7421875 302.3359375 C331.08565307 302.43596205 328.46089478 302.47471213 325.8046875 302.4609375 C325.06283203 302.46480469 324.32097656 302.46867187 323.55664062 302.47265625 C317.99545752 302.46257251 317.99545752 302.46257251 315.7421875 301.3359375 C314.6849561 298.78267949 313.72021658 296.25204538 312.8046875 293.6484375 C311.0429535 288.69665832 309.1605383 284.0154463 306.7421875 279.3359375 C306.09989954 277.98048961 305.46367089 276.62216139 304.83203125 275.26171875 C300.84283824 266.69882194 296.73619128 258.2123556 292.3671875 249.8359375 C291.95073975 249.02938721 291.53429199 248.22283691 291.10522461 247.3918457 C290.51173218 246.26588989 290.51173218 246.26588989 289.90625 245.1171875 C289.56029785 244.45783203 289.2143457 243.79847656 288.85791016 243.11914062 C287.79760985 241.25878948 287.79760985 241.25878948 286.10693359 239.78710938 C284.7421875 238.3359375 284.7421875 238.3359375 284.7421875 235.3359375 C284.0821875 235.3359375 283.4221875 235.3359375 282.7421875 235.3359375 C281.06490031 232.69627241 279.48689413 230.0454222 277.9296875 227.3359375 C272.7541094 218.60128455 266.86176572 210.85742696 260.27832031 203.1484375 C258.87312063 201.49042694 257.50120305 199.81185017 256.140625 198.1171875 C247.74303601 187.8216914 238.22305562 178.62509418 228.7421875 169.3359375 C225.33756174 170.92311598 223.49903897 172.53346367 221.1171875 175.4609375 C220.03508947 176.78875211 218.91813511 178.09047574 217.7421875 179.3359375 C217.0821875 179.3359375 216.4221875 179.3359375 215.7421875 179.3359375 C215.39607422 180.41875 215.39607422 180.41875 215.04296875 181.5234375 C213.49292566 184.87488202 211.58883295 186.78443362 208.9296875 189.3359375 C208.07761719 190.1609375 207.22554687 190.9859375 206.34765625 191.8359375 C205.48785156 192.6609375 204.62804687 193.4859375 203.7421875 194.3359375 C200.17139313 197.774684 197.1019222 201.31541974 194.1171875 205.2734375 C193.23772102 206.43285477 192.35748606 207.59168943 191.4765625 208.75 C191.02603516 209.34329102 190.57550781 209.93658203 190.11132812 210.54785156 C187.89622326 213.44075955 185.62919524 216.29217005 183.3671875 219.1484375 C178.9649552 224.7232524 174.6871623 230.38255044 170.44506836 236.07983398 C166.51184976 241.34757141 162.48180193 246.53434114 158.4296875 251.7109375 C147.2223838 266.10804706 139.36675476 280.62941066 131.67871094 297.10620117 C129.54129502 301.67848128 127.33125067 306.20646099 125.0546875 310.7109375 C119.48147727 320.12105798 119.48147727 320.12105798 116.7421875 330.3359375 C117.40299316 330.55620605 118.06379883 330.77647461 118.74462891 331.00341797 C119.68483887 331.31682129 120.62504883 331.63022461 121.59375 331.953125 C122.6561792 332.30697266 123.7186084 332.66082031 124.81323242 333.02539062 C127.23077578 333.83184735 129.64757905 334.64052531 132.0637207 335.45117188 C138.29672452 337.54040661 144.53512065 339.59693472 150.80859375 341.5625 C165.73755246 346.29438688 180.15259749 351.81220141 194.5546875 357.9609375 C195.38809662 358.31647705 196.22150574 358.6720166 197.08016968 359.03833008 C212.49445486 365.63860138 227.83648297 372.37013849 242.3671875 380.7734375 C243.83309326 381.61455078 243.83309326 381.61455078 245.32861328 382.47265625 C247.26206407 383.58495649 249.19363212 384.70053761 251.12304688 385.81982422 C253.3897352 387.13191729 255.66509773 388.42648884 257.9453125 389.71484375 C267.86887354 395.39687233 276.84818912 402.1665903 285.7421875 409.3359375 C286.69254883 410.10043213 286.69254883 410.10043213 287.66210938 410.88037109 C294.40332704 416.35359782 300.69869213 422.1017125 306.6171875 428.4609375 C307.39509644 429.29625 307.39509644 429.29625 308.1887207 430.1484375 C311.7421875 434.0762427 311.7421875 434.0762427 311.7421875 436.3359375 C312.4021875 436.3359375 313.0621875 436.3359375 313.7421875 436.3359375 C315.00390625 437.67431641 315.00390625 437.67431641 316.4296875 439.5625 C317.22294434 440.60494873 317.22294434 440.60494873 318.03222656 441.66845703 C318.59651367 442.42497559 319.16080078 443.18149414 319.7421875 443.9609375 C320.32452148 444.73421387 320.90685547 445.50749023 321.50683594 446.30419922 C323.26062797 448.64178778 325.00306878 450.98741862 326.7421875 453.3359375 C327.21849609 453.9753125 327.69480469 454.6146875 328.18554688 455.2734375 C334.63198626 463.95756264 340.41631932 472.92388195 345.7421875 482.3359375 C346.13374023 483.02187988 346.52529297 483.70782227 346.92871094 484.41455078 C362.50738567 511.97537301 371.15855833 540.20657295 375.7421875 571.3359375 C375.93683594 572.61339844 376.13148438 573.89085937 376.33203125 575.20703125 C378.66693907 594.93323639 376.64486142 614.9724146 372.7421875 634.3359375 C372.58685547 635.14015137 372.43152344 635.94436523 372.27148438 636.77294922 C367.53405658 660.36267356 356.53075163 683.95395123 345.7421875 705.3359375 C345.0821875 705.3359375 344.4221875 705.3359375 343.7421875 705.3359375 C343.47897705 706.20508789 343.2157666 707.07423828 342.94458008 707.96972656 C340.88182259 713.74460987 337.56253932 718.83755792 334.4296875 724.0859375 C334.07547729 724.68320648 333.72126709 725.28047546 333.35632324 725.89584351 C327.43629053 735.85652023 321.0483435 745.37116993 314.02148438 754.58837891 C312.77884582 756.28586111 311.67456988 758.02694569 310.5703125 759.81640625 C309.96703125 760.64785156 309.36375 761.47929688 308.7421875 762.3359375 C307.7521875 762.3359375 306.7621875 762.3359375 305.7421875 762.3359375 C306.71267633 756.10197397 307.80297503 749.92369613 309.1796875 743.765625 C316.34878242 710.45312824 318.24083176 673.91815903 311.7421875 640.3359375 C311.54133545 639.220979 311.54133545 639.220979 311.33642578 638.08349609 C307.26998036 615.82894932 299.40327733 594.4523945 290.64672852 573.67236328 C289.7421875 571.3359375 289.7421875 571.3359375 289.24194336 569.08935547 C289.07702393 568.51072754 288.91210449 567.93209961 288.7421875 567.3359375 C288.0821875 567.0059375 287.4221875 566.6759375 286.7421875 566.3359375 C285.68896484 564.78540039 285.68896484 564.78540039 284.578125 562.80859375 C284.17851563 562.09896484 283.77890625 561.38933594 283.3671875 560.65820312 C282.9546875 559.91248047 282.5421875 559.16675781 282.1171875 558.3984375 C281.69695313 557.65658203 281.27671875 556.91472656 280.84375 556.15039062 C277.7421875 550.59678115 277.7421875 550.59678115 277.7421875 548.3359375 C277.0821875 548.0059375 276.4221875 547.6759375 275.7421875 547.3359375 C274.70202868 545.69403391 273.708306 544.02247028 272.7421875 542.3359375 C251.4652225 508.30351237 224.20358906 484.07652206 189.27832031 464.7421875 C186.81944891 463.37877787 184.3691966 462.00120402 181.921875 460.6171875 C175.39232796 456.8638655 175.39232796 456.8638655 168.7421875 453.3359375 C168.7421875 452.6759375 168.7421875 452.0159375 168.7421875 451.3359375 C168.21286621 451.17158203 167.68354492 451.00722656 167.13818359 450.83789062 C161.02749516 448.87843459 155.22399457 446.4475277 149.3671875 443.8359375 C125.57152228 433.40933708 101.66555621 424.36417853 76.95898438 416.37646484 C74.88381036 415.70521472 72.8113012 415.02564207 70.7421875 414.3359375 C70.35861084 415.39022949 70.35861084 415.39022949 69.96728516 416.46582031 C68.62011931 419.62191471 66.97208492 422.35589978 65.140625 425.2578125 C64.41773791 426.41395949 63.6961001 427.57088834 62.97558594 428.72851562 C62.42034241 429.62050659 62.42034241 429.62050659 61.85388184 430.53051758 C60.05849595 433.44627 58.32326083 436.39639455 56.59375 439.3515625 C56.24984726 439.93900238 55.90594452 440.52644226 55.55162048 441.13168335 C54.48907166 442.94914464 53.42810462 444.76752334 52.3671875 446.5859375 C51.62035678 447.86353651 50.87336618 449.14104207 50.1262207 450.41845703 C49.01769333 452.31378492 47.90926212 454.20916808 46.80140686 456.10488892 C43.47630789 461.79435961 40.13501748 467.4742068 36.78564453 473.14941406 C35.04401693 476.1046609 33.31824913 479.06794139 31.6184082 482.04736328 C30.99925537 483.13259277 30.38010254 484.21782227 29.7421875 485.3359375 C30.64195312 485.53622559 31.54171875 485.73651367 32.46875 485.94287109 C44.54273039 488.73952981 56.09431441 492.76138979 67.7421875 496.9609375 C68.73431244 497.31631592 69.72643738 497.67169434 70.74862671 498.0378418 C90.48645059 505.11285835 110.02360326 512.46411415 128.61669922 522.22607422 C131.05724061 523.50044835 133.51076569 524.74799443 135.96484375 525.99609375 C145.62472737 530.9383 154.90213279 536.01354843 163.7421875 542.3359375 C165.10435055 543.25426498 166.46772854 544.17079179 167.83203125 545.0859375 C184.13774161 556.21067726 198.60419271 569.97430949 209.7421875 586.3359375 C210.32484375 587.18929687 210.9075 588.04265625 211.5078125 588.921875 C221.62683314 605.04610883 229.08372996 623.67780403 232.7421875 642.3359375 C233.02980957 643.71966553 233.02980957 643.71966553 233.32324219 645.13134766 C243.59277469 696.15232846 235.86860019 750.66558922 208.7421875 795.3359375 C206.38370711 798.83440954 203.8033188 802.10723674 201.140625 805.37890625 C198.00520697 809.24456008 195.17860455 813.30329743 192.3359375 817.38671875 C191.81 818.02996094 191.2840625 818.67320312 190.7421875 819.3359375 C190.0821875 819.3359375 189.4221875 819.3359375 188.7421875 819.3359375 C188.7421875 819.9959375 188.7421875 820.6559375 188.7421875 821.3359375 C186.75958324 823.02326027 184.7589533 824.68959807 182.7421875 826.3359375 C182.4121875 826.9959375 182.0821875 827.6559375 181.7421875 828.3359375 C181.0821875 828.3359375 180.4221875 828.3359375 179.7421875 828.3359375 C179.4121875 829.3259375 179.0821875 830.3159375 178.7421875 831.3359375 C178.0821875 831.3359375 177.4221875 831.3359375 176.7421875 831.3359375 C176.7421875 831.9959375 176.7421875 832.6559375 176.7421875 833.3359375 C174.32225943 835.91822496 171.46680881 838.08499317 168.7421875 840.3359375 C167.94554687 840.99891846 167.94554687 840.99891846 167.1328125 841.67529297 C153.63145248 852.86941044 139.79608309 861.98674255 124.2421875 870.0859375 C123.33566437 870.5607103 123.33566437 870.5607103 122.41082764 871.04507446 C113.40011648 875.74353199 104.24067899 879.72944625 94.7421875 883.3359375 C93.96568848 883.63306641 93.18918945 883.93019531 92.38916016 884.23632812 C78.14101442 889.54368107 63.23165458 892.90700576 48.46777344 896.44311523 C46.10435594 897.0094991 43.74276681 897.58361307 41.38378906 898.16821289 C33.34643849 900.11516014 25.31920611 901.36894859 17.1171875 902.3984375 C15.92351562 902.55892578 14.72984375 902.71941406 13.5 902.88476562 C-9.94557124 905.8878249 -33.4106277 906.71435057 -57.02107239 906.65379333 C-59.23186412 906.64834746 -61.44264513 906.64598415 -63.65344238 906.6439209 C-85.65605295 906.61193854 -107.39504425 905.96195988 -129.2578125 903.3359375 C-131.86969419 903.05378374 -134.48167429 902.77253948 -137.09375 902.4921875 C-154.89743314 900.48112545 -172.29838094 897.12279409 -189.78222656 893.30664062 C-193.62514556 892.46930105 -197.47292551 891.65707278 -201.32284546 890.8526001 C-204.52788224 890.18235473 -207.7314347 889.50518596 -210.93475342 888.82678223 C-212.43243768 888.51033293 -213.93049951 888.19566279 -215.42901611 887.88317871 C-238.0218987 883.15675419 -260.1484246 876.60870936 -282.21118164 869.87426758 C-285.84797938 868.76499876 -289.48731327 867.66435633 -293.12695312 866.56445312 C-308.5784754 861.87626729 -323.99392261 857.14638489 -338.86328125 850.8046875 C-344.95229315 849.61271127 -351.75273305 854.364263 -357.1328125 856.9609375 C-358.06246826 857.40679199 -358.99212402 857.85264648 -359.94995117 858.31201172 C-365.51072685 860.98710535 -371.05227885 863.69879687 -376.5703125 866.4609375 C-377.21524658 866.78344482 -377.86018066 867.10595215 -378.5246582 867.43823242 C-381.69515159 869.02967539 -384.85167164 870.64313139 -387.9921875 872.29296875 C-406.63352582 882.00114932 -426.31399107 888.47866652 -446.40576172 894.46777344 C-450.23931841 895.63470783 -454.03108852 896.90853061 -457.8203125 898.2109375 C-462.94093891 899.94119483 -467.92453999 901.43199301 -473.2578125 902.3359375 C-473.9178125 902.0059375 -474.5778125 901.6759375 -475.2578125 901.3359375 C-477.12838041 901.108436 -479.00467208 900.92630939 -480.8828125 900.7734375 C-481.88570313 900.68964844 -482.88859375 900.60585938 -483.921875 900.51953125 C-484.69273437 900.45894531 -485.46359375 900.39835938 -486.2578125 900.3359375 C-486.43359375 898.01171875 -486.43359375 898.01171875 -486.2578125 895.3359375 C-483.4453125 892.5234375 -483.4453125 892.5234375 -480.2578125 890.3359375 C-479.2678125 890.3359375 -478.2778125 890.3359375 -477.2578125 890.3359375 C-476.9278125 889.3459375 -476.5978125 888.3559375 -476.2578125 887.3359375 C-473.6953125 886.1484375 -473.6953125 886.1484375 -471.2578125 885.3359375 C-471.2578125 884.6759375 -471.2578125 884.0159375 -471.2578125 883.3359375 C-469.741875 882.500625 -469.741875 882.500625 -468.1953125 881.6484375 C-465.48008596 880.10870538 -462.95710625 878.43812155 -460.4453125 876.5859375 C-457.2578125 874.3359375 -457.2578125 874.3359375 -455.2578125 874.3359375 C-455.2578125 873.6759375 -455.2578125 873.0159375 -455.2578125 872.3359375 C-453.18749132 870.58753502 -451.11589423 868.95061041 -448.9453125 867.3359375 C-448.05295898 866.65917969 -448.05295898 866.65917969 -447.14257812 865.96875 C-439.68493436 860.3359375 -439.68493436 860.3359375 -436.2578125 860.3359375 C-436.2578125 859.6759375 -436.2578125 859.0159375 -436.2578125 858.3359375 C-435.1234375 857.8821875 -433.9890625 857.4284375 -432.8203125 856.9609375 C-429.21059558 855.76497944 -429.21059558 855.76497944 -428.2578125 853.3359375 C-427.6803125 853.0678125 -427.1028125 852.7996875 -426.5078125 852.5234375 C-424.0755984 851.38135531 -424.0755984 851.38135531 -421.9453125 849.0234375 C-418.89434522 845.97247022 -415.856704 843.71256396 -412.2578125 841.3359375 C-411.5978125 841.3359375 -410.9378125 841.3359375 -410.2578125 841.3359375 C-410.2578125 840.6759375 -410.2578125 840.0159375 -410.2578125 839.3359375 C-408.83203125 838.046875 -408.83203125 838.046875 -406.9453125 836.7109375 C-406.02298828 836.04191406 -406.02298828 836.04191406 -405.08203125 835.359375 C-403.2578125 834.3359375 -403.2578125 834.3359375 -400.2578125 834.3359375 C-400.2578125 833.6759375 -400.2578125 833.0159375 -400.2578125 832.3359375 C-397.2578125 830.3359375 -397.2578125 830.3359375 -394.2578125 830.3359375 C-394.2578125 829.6759375 -394.2578125 829.0159375 -394.2578125 828.3359375 C-393.5978125 828.3359375 -392.9378125 828.3359375 -392.2578125 828.3359375 C-391.9278125 827.3459375 -391.5978125 826.3559375 -391.2578125 825.3359375 C-389.59114583 824.66927083 -387.92447917 824.00260417 -386.2578125 823.3359375 C-385.9278125 822.3459375 -385.5978125 821.3559375 -385.2578125 820.3359375 C-382.921875 818.79296875 -382.921875 818.79296875 -379.8828125 817.1484375 C-374.40321635 814.08091238 -369.42444019 810.64870966 -364.4375 806.83984375 C-362.2578125 805.3359375 -362.2578125 805.3359375 -360.2578125 805.3359375 C-359.9278125 804.3459375 -359.5978125 803.3559375 -359.2578125 802.3359375 C-358.5978125 802.3359375 -357.9378125 802.3359375 -357.2578125 802.3359375 C-357.41773682 801.83529785 -357.57766113 801.3346582 -357.74243164 800.81884766 C-358.44703947 797.42431348 -358.45458878 794.06200576 -358.50390625 790.609375 C-358.53540483 789.02172374 -358.56715422 787.43407744 -358.59912109 785.84643555 C-358.61448914 785.01026703 -358.62985718 784.17409851 -358.64569092 783.31259155 C-359.18400286 755.08895583 -360.96376587 727.04819987 -363.57421875 698.9453125 C-364.89774298 684.38198843 -365.57285199 669.8891997 -365.8828125 655.2734375 C-365.90493805 654.24525909 -365.9270636 653.21708069 -365.94985962 652.15774536 C-366.56134307 622.450439 -365.52273408 592.95583432 -363.2578125 563.3359375 C-356.6578125 563.3359375 -350.0578125 563.3359375 -343.2578125 563.3359375 C-340.5078125 571.2734375 -340.5078125 571.2734375 -339.66894531 573.71459961 C-338.07565975 578.26864927 -336.26491771 582.65975368 -334.27099609 587.05200195 C-332.53303572 590.96974154 -331.00684391 594.97044438 -329.4453125 598.9609375 C-324.68787188 610.97598191 -319.25968228 622.55947404 -313.32421875 634.04296875 C-312.2578125 636.3359375 -312.2578125 636.3359375 -312.2578125 638.3359375 C-311.5978125 638.6659375 -310.9378125 638.9959375 -310.2578125 639.3359375 C-309.6328125 641.8984375 -309.6328125 641.8984375 -309.2578125 644.3359375 C-308.5978125 644.3359375 -307.9378125 644.3359375 -307.2578125 644.3359375 C-306.98388672 644.91569336 -306.70996094 645.49544922 -306.42773438 646.09277344 C-302.97491566 653.21456294 -298.97251482 659.89248946 -294.7578125 666.5859375 C-294.10683594 667.63523437 -293.45585937 668.68453125 -292.78515625 669.765625 C-288.86920852 676.04084113 -288.86920852 676.04084113 -284.3515625 681.8828125 C-282.2578125 684.3359375 -282.2578125 684.3359375 -281.2578125 687.3359375 C-280.5978125 687.6659375 -279.9378125 687.9959375 -279.2578125 688.3359375 C-279.2578125 689.3259375 -279.2578125 690.3159375 -279.2578125 691.3359375 C-278.5978125 691.3359375 -277.9378125 691.3359375 -277.2578125 691.3359375 C-275.66098121 693.43083526 -274.16910322 695.53182865 -272.6953125 697.7109375 C-267.72722593 704.87130815 -262.32712993 711.46374964 -256 717.484375 C-254.2578125 719.3359375 -254.2578125 719.3359375 -254.2578125 721.3359375 C-252.9378125 721.3359375 -251.6178125 721.3359375 -250.2578125 721.3359375 C-250.2578125 720.6759375 -250.2578125 720.0159375 -250.2578125 719.3359375 C-248.8828125 717.7109375 -248.8828125 717.7109375 -247.2578125 716.3359375 C-246.5978125 716.3359375 -245.9378125 716.3359375 -245.2578125 716.3359375 C-245.2578125 715.6759375 -245.2578125 715.0159375 -245.2578125 714.3359375 C-244.2678125 714.3359375 -243.2778125 714.3359375 -242.2578125 714.3359375 C-242.2578125 713.6759375 -242.2578125 713.0159375 -242.2578125 712.3359375 C-241.5978125 712.3359375 -240.9378125 712.3359375 -240.2578125 712.3359375 C-239.9278125 711.3459375 -239.5978125 710.3559375 -239.2578125 709.3359375 C-237.63082692 707.60726533 -235.97096188 705.97635884 -234.2578125 704.3359375 C-232.75509265 702.83866229 -231.25531459 701.33843126 -229.7578125 699.8359375 C-227.46313585 697.54126085 -225.16854001 695.24869065 -222.84765625 692.98046875 C-219.86622532 689.93608151 -217.08348985 686.76516131 -214.3203125 683.5234375 C-213.79179687 682.9039624 -213.26328125 682.2844873 -212.71875 681.64624023 C-207.24138853 675.18920871 -202.29844997 668.79557591 -198.2578125 661.3359375 C-197.5978125 661.3359375 -196.9378125 661.3359375 -196.2578125 661.3359375 C-196.01804687 660.62824219 -195.77828125 659.92054688 -195.53125 659.19140625 C-194.05143938 655.87318061 -192.16646057 653.47528342 -189.8828125 650.6484375 C-181.43505726 639.9523376 -173.80226177 628.61282295 -167.484375 616.53125 C-165.19764533 612.43844084 -162.27844045 609.27301484 -158.82421875 606.1015625 C-156.05263757 603.11483575 -154.43134816 600.11609576 -152.7578125 596.4609375 C-149.4460446 589.54652512 -145.81120207 582.86672899 -142.0078125 576.2109375 C-135.6084212 564.99906849 -129.40129616 553.68973863 -123.2578125 542.3359375 C-124.2928894 542.1824585 -124.2928894 542.1824585 -125.34887695 542.02587891 C-133.83026552 540.69801654 -142.13400263 538.83524006 -150.4453125 536.7109375 C-151.53590469 536.4329834 -151.53590469 536.4329834 -152.64852905 536.14941406 C-167.12701839 532.42228203 -181.35647297 527.96017039 -195.5703125 523.3359375 C-196.58741302 523.00744812 -197.60451355 522.67895874 -198.6524353 522.34051514 C-213.1393905 517.64431265 -227.25363152 512.31787399 -241.2578125 506.3359375 C-241.97397736 506.03091309 -242.69014221 505.72588867 -243.42800903 505.41162109 C-257.24647609 499.50417041 -271.13065094 493.55070836 -283.98486328 485.71923828 C-286.81314384 483.99796678 -289.6597959 482.30826463 -292.50390625 480.61328125 C-308.12505407 471.22827922 -322.27487051 461.30692742 -335.578125 448.83203125 C-337.848917 446.71681829 -340.15310293 444.66872334 -342.5078125 442.6484375 C-350.26248511 435.88508386 -356.96328047 428.46890217 -363.2578125 420.3359375 C-363.74411133 419.71493164 -364.23041016 419.09392578 -364.73144531 418.45410156 C-384.44205278 393.06270766 -396.67697534 363.90848919 -402.2578125 332.3359375 C-402.44182617 331.41329102 -402.62583984 330.49064453 -402.81542969 329.54003906 C-404.74962816 318.90367137 -404.65369828 308.23479612 -404.6328125 297.4609375 C-404.63260101 296.45837921 -404.63238953 295.45582092 -404.63217163 294.42288208 C-404.6029169 280.5501765 -404.21517934 267.23616761 -400.84326172 253.70996094 C-400.24276553 251.27492134 -399.73145538 248.8322889 -399.23046875 246.375 C-396.50603299 233.65016509 -391.75146483 221.93602565 -386.47167969 210.07324219 C-385.40752555 207.67354465 -384.37795069 205.26300492 -383.359375 202.84375 C-378.22200405 190.97295891 -371.10483862 180.38159189 -363.84960938 169.70947266 C-362.89066524 168.27958693 -361.95253381 166.83495779 -361.05664062 165.36474609 C-358.67698945 161.46476222 -358.67698945 161.46476222 -356.14550781 160.68676758 C-355.52256836 160.57099365 -354.89962891 160.45521973 -354.2578125 160.3359375 C-354.37374756 161.2424707 -354.48968262 162.14900391 -354.60913086 163.08300781 C-355.04544601 166.50462567 -355.47940536 169.92652636 -355.91186523 173.34863281 C-356.09812294 174.81880133 -356.28527046 176.28885745 -356.47338867 177.75878906 C-363.46010705 232.38561113 -355.2484341 284.72916222 -323.36376953 330.5168457 C-322.2578125 332.3359375 -322.2578125 332.3359375 -322.2578125 334.3359375 C-321.5978125 334.6659375 -320.9378125 334.9959375 -320.2578125 335.3359375 C-319.36669213 336.64486185 -318.51930326 337.98374754 -317.6953125 339.3359375 C-314.76426323 343.85404271 -311.34864302 347.3687402 -307.4765625 351.0859375 C-305.36265609 353.22961724 -303.60272903 355.41454146 -301.8203125 357.8359375 C-279.39350961 387.4475285 -237.99467871 404.9207338 -204.26953125 417.21679688 C-201.50805855 418.24294724 -198.77201543 419.31462266 -196.0390625 420.4140625 C-166.91551336 432.00283066 -136.17291867 439.79215311 -106.01831055 448.22827148 C-95.3265078 451.23347456 -95.3265078 451.23347456 -90.81640625 453.04296875 C-86.849564 454.48426928 -83.44543574 454.96204257 -79.2578125 455.3359375 C-77.33193452 451.94332871 -75.41163172 448.5476281 -73.49609375 445.14916992 C-72.52886867 443.43573833 -71.55744871 441.72467688 -70.5859375 440.01367188 C-66.66640965 433.07360687 -66.66640965 433.07360687 -63.296875 425.859375 C-60.60619126 419.5482236 -56.91390729 413.76393339 -53.3828125 407.8984375 C-52.6805293 406.72358231 -51.97870388 405.54845335 -51.27734375 404.37304688 C-49.65181756 401.65144876 -48.02127309 398.93290715 -46.38775635 396.21609497 C-44.00869921 392.25748937 -41.63372091 388.29643346 -39.2578125 384.3359375 C-39.83234665 384.19305801 -40.4068808 384.05017853 -40.99882507 383.90296936 C-94.01205588 370.70387925 -94.01205588 370.70387925 -115.61181641 363.54296875 C-118.28326785 362.65856699 -120.95669635 361.7834026 -123.63427734 360.91796875 C-157.8206865 349.86779136 -157.8206865 349.86779136 -171.82519531 343.44775391 C-174.70669308 342.13077871 -177.60363666 340.8503477 -180.5 339.56640625 C-198.99119024 331.28974357 -216.69604258 322.44381466 -232.2578125 309.3359375 C-233.24910156 308.51996094 -234.24039063 307.70398438 -235.26171875 306.86328125 C-256.12482052 288.82907464 -268.9995088 263.91569956 -276.1328125 237.5859375 C-276.32383545 236.89153564 -276.5148584 236.19713379 -276.71166992 235.48168945 C-279.95994231 222.62854815 -280.61054027 209.50077326 -280.57348633 196.30957031 C-280.5703233 193.96892726 -280.59392406 191.62955131 -280.61914062 189.2890625 C-280.68079318 174.77823335 -278.66379798 160.69534553 -274.5078125 146.7734375 C-274.25104736 145.90122559 -273.99428223 145.02901367 -273.72973633 144.13037109 C-267.31005108 122.92706782 -256.93023215 105.64822909 -243.2578125 88.3359375 C-242.79568359 87.74312988 -242.33355469 87.15032227 -241.85742188 86.53955078 C-240.70543409 85.09872272 -239.48706928 83.71143345 -238.2578125 82.3359375 C-237.5978125 82.3359375 -236.9378125 82.3359375 -236.2578125 82.3359375 C-236.2578125 81.6759375 -236.2578125 81.0159375 -236.2578125 80.3359375 C-234.89453125 78.9609375 -234.89453125 78.9609375 -232.9453125 77.3359375 C-229.67766039 74.57318303 -226.54978944 71.71783985 -223.4453125 68.7734375 C-185.60584099 34.43568504 -136.32795041 18.48657489 -87.12646484 8.92675781 C-84.84141264 8.45613429 -82.62099008 7.91925051 -80.375 7.296875 C-74.75015455 5.83907307 -68.94891492 5.28371133 -63.19091797 4.5859375 C-61.18509081 4.3422878 -59.18041261 4.08923742 -57.17578125 3.8359375 C-38.11252963 1.45605134 -19.21628329 0.01447536 0 0 Z M-171.25 128.078125 C-189.29087213 148.3653314 -195.50809472 171.86007568 -194.44873047 198.55517578 C-193.28499245 215.50527296 -185.08501825 231.49422837 -172.4921875 242.82421875 C-143.77069092 266.02512616 -106.35397126 275.08671474 -71.44824219 284.47216797 C-67.79144555 285.46220061 -64.14479856 286.48529484 -60.49926758 287.51586914 C-46.59760454 291.8793622 -46.59760454 291.8793622 -32.2578125 293.3359375 C-32.2578125 293.9959375 -32.2578125 294.6559375 -32.2578125 295.3359375 C-17.7378125 298.3059375 -3.2178125 301.2759375 11.7421875 304.3359375 C15.7648338 299.64285014 19.55166412 295.03779138 23.1171875 290.0234375 C23.56707031 289.40404297 24.01695312 288.78464844 24.48046875 288.14648438 C26.92960235 285.04944323 26.92960235 285.04944323 27.7421875 281.3359375 C28.4021875 281.3359375 29.0621875 281.3359375 29.7421875 281.3359375 C31.1854049 279.62024544 32.546056 277.83481467 33.8671875 276.0234375 C34.26824707 275.47945312 34.66930664 274.93546875 35.08251953 274.375 C36.99445948 271.77445998 38.87086185 269.15280451 40.7265625 266.51171875 C44.85805808 260.66445745 49.28120938 255.37113725 54.23779297 250.21875 C56.93374797 247.71688492 56.93374797 247.71688492 57.7421875 244.3359375 C58.4021875 244.3359375 59.0621875 244.3359375 59.7421875 244.3359375 C61.3129739 242.82182635 61.3129739 242.82182635 62.9296875 240.8359375 C63.54714844 240.10761719 64.16460938 239.37929688 64.80078125 238.62890625 C65.44144531 237.87222656 66.08210938 237.11554688 66.7421875 236.3359375 C67.99098134 234.93902496 69.24093377 233.54314707 70.4921875 232.1484375 C72.95102119 229.35083117 74.83785996 226.53867018 76.7421875 223.3359375 C78.38648579 221.64719871 80.05602968 219.98288235 81.7421875 218.3359375 C82.7529063 217.17854447 83.75249282 216.01135894 84.7421875 214.8359375 C87.94522099 211.06671122 91.29412863 207.59619351 95.03125 204.34375 C99.98542145 200.01820453 104.12952979 195.73282104 108.0390625 190.453125 C110.29055009 187.6542574 112.86359636 185.46294888 115.6171875 183.171875 C118.88276681 180.35051053 121.85169209 177.24777076 124.859375 174.15625 C126.7421875 172.3359375 126.7421875 172.3359375 128.7421875 171.3359375 C128.7421875 170.6759375 128.7421875 170.0159375 128.7421875 169.3359375 C129.32871094 169.08972656 129.91523437 168.84351563 130.51953125 168.58984375 C133.09701025 167.13576508 134.43639829 165.56138562 136.3046875 163.2734375 C141.67092698 157.04297219 148.03115422 152.13584812 154.57421875 147.19921875 C155.28964844 146.58433594 156.00507812 145.96945313 156.7421875 145.3359375 C156.7421875 144.6759375 156.7421875 144.0159375 156.7421875 143.3359375 C157.29777344 143.0884375 157.85335938 142.8409375 158.42578125 142.5859375 C161.16585245 141.10731561 163.39842705 139.31030505 165.8046875 137.3359375 C168.40905715 135.20544563 170.94038156 133.20380813 173.7421875 131.3359375 C173.7421875 130.6759375 173.7421875 130.0159375 173.7421875 129.3359375 C174.4021875 129.0059375 175.0621875 128.6759375 175.7421875 128.3359375 C167.76016577 123.9690198 159.75990067 119.63697718 151.7421875 115.3359375 C150.61756104 114.73023926 150.61756104 114.73023926 149.47021484 114.11230469 C126.45102436 101.80984558 101.73119951 93.56333769 76.7421875 86.3359375 C75.77168457 86.05492187 74.80118164 85.77390625 73.80126953 85.484375 C-0.9601853 64.2873201 -113.58711976 68.54762111 -171.25 128.078125 Z M-20.2578125 566.3359375 C-21.24479089 567.77342624 -22.18284233 569.24451882 -23.1015625 570.7265625 C-23.68437988 571.65863525 -24.26719727 572.59070801 -24.86767578 573.55102539 C-25.4914209 574.55254639 -26.11516602 575.55406738 -26.7578125 576.5859375 C-32.5539388 585.80114365 -38.51105037 594.65470826 -45.5 603.01953125 C-47.45931386 605.11682838 -47.45931386 605.11682838 -47.2578125 607.3359375 C-47.9178125 607.3359375 -48.5778125 607.3359375 -49.2578125 607.3359375 C-51.65601555 609.97278497 -51.65601555 609.97278497 -52.2578125 613.3359375 C-53.2478125 613.6659375 -54.2378125 613.9959375 -55.2578125 614.3359375 C-56.74321586 615.95093587 -56.74321586 615.95093587 -58.1953125 618.0234375 C-65.25907924 627.40196924 -73.12487831 636.18401373 -81.02734375 644.859375 C-82.24479047 646.21114597 -83.45568441 647.56942494 -84.63183594 648.95727539 C-90.35517956 655.66918066 -96.62663466 661.81514779 -102.8828125 668.0234375 C-104.01325631 669.14885207 -105.14346622 670.27450162 -106.2734375 671.40039062 C-108.34963488 673.46849497 -110.4271784 675.53522542 -112.50634766 677.6003418 C-117.59655995 682.6601437 -117.59655995 682.6601437 -122.6328125 687.7734375 C-125.27496691 690.35268347 -128.03269357 692.68493521 -130.90234375 695.00390625 C-131.34964844 695.44347656 -131.79695313 695.88304687 -132.2578125 696.3359375 C-132.2578125 696.9959375 -132.2578125 697.6559375 -132.2578125 698.3359375 C-132.9178125 698.3359375 -133.5778125 698.3359375 -134.2578125 698.3359375 C-134.2578125 698.9959375 -134.2578125 699.6559375 -134.2578125 700.3359375 C-134.79535156 700.54605469 -135.33289063 700.75617188 -135.88671875 700.97265625 C-139.16119538 702.85534545 -141.5895284 705.45807114 -144.1953125 708.1484375 C-144.70771484 708.66986328 -145.22011719 709.19128906 -145.74804688 709.72851562 C-146.76526282 710.76382689 -147.7805944 711.80099327 -148.79394531 712.84008789 C-150.93055865 715.02338174 -153.09589577 717.1777418 -155.2578125 719.3359375 C-156.4334375 720.5425 -156.4334375 720.5425 -157.6328125 721.7734375 C-160.18449548 724.26436612 -162.8340874 726.55478736 -165.5546875 728.85546875 C-167.90844886 730.9015136 -170.08381457 733.10155074 -172.2578125 735.3359375 C-172.8559375 735.8928125 -173.4540625 736.4496875 -174.0703125 737.0234375 C-175.48145027 738.28812021 -175.48145027 738.28812021 -175.2578125 740.3359375 C-176.09795898 740.68712646 -176.09795898 740.68712646 -176.95507812 741.04541016 C-179.8277489 742.65534842 -181.78726578 744.64099296 -184.1015625 746.984375 C-185.47634766 748.36882812 -185.47634766 748.36882812 -186.87890625 749.78125 C-187.83866765 750.75768868 -188.79830194 751.73425232 -189.7578125 752.7109375 C-190.71698192 753.68014889 -191.67661298 754.64890366 -192.63671875 755.6171875 C-194.40658338 757.40447696 -196.17438613 759.19381224 -197.93945312 760.98583984 C-200.03660609 763.11170278 -202.14352898 765.22712824 -204.2578125 767.3359375 C-200.57091528 771.20370138 -196.70078278 774.44533868 -192.3828125 777.5859375 C-191.72643799 778.06409912 -191.07006348 778.54226074 -190.39379883 779.03491211 C-184.22356767 783.46472727 -177.84026087 787.42838752 -171.24853516 791.19580078 C-169.17437619 792.38372357 -167.11310639 793.59245028 -165.05078125 794.80078125 C-108.75146664 827.37458546 -39.51631525 837.39525926 23.5078125 820.578125 C56.80942892 811.27689633 87.61861065 796.36913522 112.4296875 771.8984375 C112.95973389 771.37781738 113.48978027 770.85719727 114.03588867 770.32080078 C116.87252316 767.80119383 116.87252316 767.80119383 117.7421875 764.3359375 C118.4021875 764.3359375 119.0621875 764.3359375 119.7421875 764.3359375 C136.76740358 745.84273608 145.50625166 719.73445469 144.98828125 694.90234375 C143.81936512 677.96233696 139.9852832 661.79379466 130.7421875 647.3359375 C130.30003906 646.59859375 129.85789062 645.86125 129.40234375 645.1015625 C116.79017717 625.46124203 96.8292478 612.26397706 76.7421875 601.3359375 C76.06816895 600.96726562 75.39415039 600.59859375 74.69970703 600.21875 C50.62161735 587.20422756 7.61804289 566.3359375 -20.2578125 566.3359375 Z " fill="#3B54A5" transform="translate(523.2578125,49.6640625)"/>
<path d="M0 0 C2.08275431 -0.0064675 4.16550782 -0.01319833 6.2482605 -0.02017212 C10.59293711 -0.03203972 14.93753494 -0.0358648 19.28222656 -0.03466797 C23.63298445 -0.03450696 27.98331436 -0.04816804 32.33398438 -0.07568359 C73.97724083 -0.33472833 115.35317094 1.82975179 156.2734375 10.05078125 C160.64626838 10.92349211 165.02231836 11.77716742 169.40093994 12.62017822 C198.04825618 18.1457102 226.31763403 24.4071719 254.16210938 33.20947266 C261.38297979 35.48150594 268.6180009 37.7080618 275.85177612 39.93859863 C278.52524863 40.76434482 281.19738456 41.5943085 283.86938477 42.42480469 C285.52095544 42.9356783 287.17256502 43.44642619 288.82421875 43.95703125 C289.59393005 44.19729538 290.36364136 44.43755951 291.15667725 44.68510437 C294.87985079 45.90421099 294.87985079 45.90421099 298.7421875 46.3359375 C298.7421875 45.6759375 298.7421875 45.0159375 298.7421875 44.3359375 C300.66276042 43.65234375 302.58333333 42.96875 304.50390625 42.28515625 C306.83620586 41.36014116 306.83620586 41.36014116 309.19140625 39.84375 C311.72937053 38.34351384 314.07179193 37.43715635 316.8671875 36.5234375 C321.98071997 34.73370113 326.54620799 32.40406898 331.234375 29.703125 C335.52638812 27.36324246 338.81798642 26.05455458 343.7421875 26.3359375 C344.0721875 25.3459375 344.4021875 24.3559375 344.7421875 23.3359375 C346.3921875 23.3359375 348.0421875 23.3359375 349.7421875 23.3359375 C349.7421875 22.6759375 349.7421875 22.0159375 349.7421875 21.3359375 C351.3921875 21.3359375 353.0421875 21.3359375 354.7421875 21.3359375 C354.7421875 20.6759375 354.7421875 20.0159375 354.7421875 19.3359375 C357.71763191 18.20092273 360.69815278 17.07984554 363.6796875 15.9609375 C364.92588867 15.48527344 364.92588867 15.48527344 366.19726562 15 C371.03931524 13.19129664 375.74581116 11.77130654 380.83422852 10.84130859 C383.04937018 10.36454696 383.04937018 10.36454696 385.7421875 8.3359375 C387.60406576 7.9182434 389.48212035 7.56937812 391.3671875 7.2734375 C394.86355838 6.97084924 394.86355838 6.97084924 397.7421875 5.3359375 C399.59506252 5.26367248 401.45052628 5.2521253 403.3046875 5.2734375 C404.31660156 5.28246094 405.32851563 5.29148437 406.37109375 5.30078125 C407.15355469 5.31238281 407.93601562 5.32398438 408.7421875 5.3359375 C408.7421875 4.6759375 408.7421875 4.0159375 408.7421875 3.3359375 C411.3821875 3.0059375 414.0221875 2.6759375 416.7421875 2.3359375 C416.7421875 1.6759375 416.7421875 1.0159375 416.7421875 0.3359375 C424.6621875 0.3359375 432.5821875 0.3359375 440.7421875 0.3359375 C439.7421875 5.3359375 439.7421875 5.3359375 438.7421875 7.3359375 C437.4221875 7.3359375 436.1021875 7.3359375 434.7421875 7.3359375 C434.7421875 7.9959375 434.7421875 8.6559375 434.7421875 9.3359375 C433.4221875 9.3359375 432.1021875 9.3359375 430.7421875 9.3359375 C430.7421875 9.9959375 430.7421875 10.6559375 430.7421875 11.3359375 C429.10704338 12.38669032 427.433682 13.37853261 425.7421875 14.3359375 C424.23305341 15.38542335 422.73330398 16.44850593 421.2421875 17.5234375 C417.35193986 20.27493509 413.38313243 22.80988218 409.3046875 25.2734375 C404.27328483 28.33093715 399.54493805 31.62164793 394.82421875 35.1328125 C390.30203195 38.3654023 385.62014871 41.33618062 380.93945312 44.33251953 C377.06311392 46.81888456 373.24033017 49.34531925 369.4921875 52.0234375 C365.9320415 54.55696467 362.28771071 56.87694944 358.5546875 59.1484375 C351.70191404 63.32004309 345.0066223 67.7002211 338.37939453 72.22119141 C336.94263029 73.19945945 335.49736457 74.16521722 334.05078125 75.12890625 C333.33019531 75.63035156 332.60960937 76.13179688 331.8671875 76.6484375 C331.27164063 77.05707031 330.67609375 77.46570313 330.0625 77.88671875 C326.87016853 81.39072756 327.60035867 87.09634342 327.57421875 91.546875 C327.5700293 92.25437393 327.56583984 92.96187286 327.56152344 93.69081116 C327.55164794 96.03090843 327.55176357 98.37082249 327.5546875 100.7109375 C327.55495941 101.52426544 327.55523132 102.33759338 327.55551147 103.17556763 C327.59277905 127.71820616 329.01612243 152.17228455 331.04827881 176.62393188 C333.77013601 209.42800852 334.92286042 242.17334751 334.9296875 275.0859375 C334.93068451 276.39260376 334.93168152 277.69927002 334.93270874 279.04553223 C334.93238779 282.74135267 334.92346014 286.43701812 334.91015625 290.1328125 C334.90894775 291.25345093 334.90773926 292.37408936 334.90649414 293.52868652 C334.90020996 294.54628052 334.89392578 295.56387451 334.88745117 296.61230469 C334.88363937 297.50471863 334.87982758 298.39713257 334.87590027 299.31658936 C334.7421875 301.3359375 334.7421875 301.3359375 333.7421875 302.3359375 C331.08565307 302.43596205 328.46089478 302.47471213 325.8046875 302.4609375 C325.06283203 302.46480469 324.32097656 302.46867187 323.55664062 302.47265625 C317.99545752 302.46257251 317.99545752 302.46257251 315.7421875 301.3359375 C314.6849561 298.78267949 313.72021658 296.25204538 312.8046875 293.6484375 C311.0429535 288.69665832 309.1605383 284.0154463 306.7421875 279.3359375 C306.09989954 277.98048961 305.46367089 276.62216139 304.83203125 275.26171875 C300.84283824 266.69882194 296.73619128 258.2123556 292.3671875 249.8359375 C291.95073975 249.02938721 291.53429199 248.22283691 291.10522461 247.3918457 C290.51173218 246.26588989 290.51173218 246.26588989 289.90625 245.1171875 C289.56029785 244.45783203 289.2143457 243.79847656 288.85791016 243.11914062 C287.79760985 241.25878948 287.79760985 241.25878948 286.10693359 239.78710938 C284.7421875 238.3359375 284.7421875 238.3359375 284.7421875 235.3359375 C284.0821875 235.3359375 283.4221875 235.3359375 282.7421875 235.3359375 C281.06490031 232.69627241 279.48689413 230.0454222 277.9296875 227.3359375 C272.7541094 218.60128455 266.86176572 210.85742696 260.27832031 203.1484375 C258.87312063 201.49042694 257.50120305 199.81185017 256.140625 198.1171875 C247.74303601 187.8216914 238.22305562 178.62509418 228.7421875 169.3359375 C225.33756174 170.92311598 223.49903897 172.53346367 221.1171875 175.4609375 C220.03508947 176.78875211 218.91813511 178.09047574 217.7421875 179.3359375 C217.0821875 179.3359375 216.4221875 179.3359375 215.7421875 179.3359375 C215.51144531 180.0578125 215.28070312 180.7796875 215.04296875 181.5234375 C213.49292566 184.87488202 211.58883295 186.78443362 208.9296875 189.3359375 C208.07761719 190.1609375 207.22554687 190.9859375 206.34765625 191.8359375 C205.48785156 192.6609375 204.62804687 193.4859375 203.7421875 194.3359375 C200.17139313 197.774684 197.1019222 201.31541974 194.1171875 205.2734375 C193.23772102 206.43285477 192.35748606 207.59168943 191.4765625 208.75 C191.02603516 209.34329102 190.57550781 209.93658203 190.11132812 210.54785156 C187.89622326 213.44075955 185.62919524 216.29217005 183.3671875 219.1484375 C178.9649552 224.7232524 174.6871623 230.38255044 170.44506836 236.07983398 C166.51184976 241.34757141 162.48180193 246.53434114 158.4296875 251.7109375 C147.2223838 266.10804706 139.36675476 280.62941066 131.67871094 297.10620117 C129.54129502 301.67848128 127.33125067 306.20646099 125.0546875 310.7109375 C119.48147727 320.12105798 119.48147727 320.12105798 116.7421875 330.3359375 C117.733396 330.66634033 117.733396 330.66634033 118.74462891 331.00341797 C119.68483887 331.31682129 120.62504883 331.63022461 121.59375 331.953125 C122.6561792 332.30697266 123.7186084 332.66082031 124.81323242 333.02539062 C127.23077578 333.83184735 129.64757905 334.64052531 132.0637207 335.45117188 C138.29672452 337.54040661 144.53512065 339.59693472 150.80859375 341.5625 C165.73755246 346.29438688 180.15259749 351.81220141 194.5546875 357.9609375 C195.80480118 358.49424683 195.80480118 358.49424683 197.08016968 359.03833008 C212.49445486 365.63860138 227.83648297 372.37013849 242.3671875 380.7734375 C243.83309326 381.61455078 243.83309326 381.61455078 245.32861328 382.47265625 C247.26206407 383.58495649 249.19363212 384.70053761 251.12304688 385.81982422 C253.3897352 387.13191729 255.66509773 388.42648884 257.9453125 389.71484375 C267.86887354 395.39687233 276.84818912 402.1665903 285.7421875 409.3359375 C286.69254883 410.10043213 286.69254883 410.10043213 287.66210938 410.88037109 C294.40332704 416.35359782 300.69869213 422.1017125 306.6171875 428.4609375 C307.39509644 429.29625 307.39509644 429.29625 308.1887207 430.1484375 C311.7421875 434.0762427 311.7421875 434.0762427 311.7421875 436.3359375 C312.4021875 436.3359375 313.0621875 436.3359375 313.7421875 436.3359375 C315.00390625 437.67431641 315.00390625 437.67431641 316.4296875 439.5625 C317.22294434 440.60494873 317.22294434 440.60494873 318.03222656 441.66845703 C318.59651367 442.42497559 319.16080078 443.18149414 319.7421875 443.9609375 C320.32452148 444.73421387 320.90685547 445.50749023 321.50683594 446.30419922 C323.26062797 448.64178778 325.00306878 450.98741862 326.7421875 453.3359375 C327.21849609 453.9753125 327.69480469 454.6146875 328.18554688 455.2734375 C334.63198626 463.95756264 340.41631932 472.92388195 345.7421875 482.3359375 C346.13374023 483.02187988 346.52529297 483.70782227 346.92871094 484.41455078 C362.50738567 511.97537301 371.15855833 540.20657295 375.7421875 571.3359375 C375.93683594 572.61339844 376.13148438 573.89085937 376.33203125 575.20703125 C378.66693907 594.93323639 376.64486142 614.9724146 372.7421875 634.3359375 C372.58685547 635.14015137 372.43152344 635.94436523 372.27148438 636.77294922 C367.53405658 660.36267356 356.53075163 683.95395123 345.7421875 705.3359375 C345.0821875 705.3359375 344.4221875 705.3359375 343.7421875 705.3359375 C343.47897705 706.20508789 343.2157666 707.07423828 342.94458008 707.96972656 C340.88182259 713.74460987 337.56253932 718.83755792 334.4296875 724.0859375 C334.07547729 724.68320648 333.72126709 725.28047546 333.35632324 725.89584351 C327.43629053 735.85652023 321.0483435 745.37116993 314.02148438 754.58837891 C312.77884582 756.28586111 311.67456988 758.02694569 310.5703125 759.81640625 C309.96703125 760.64785156 309.36375 761.47929688 308.7421875 762.3359375 C307.7521875 762.3359375 306.7621875 762.3359375 305.7421875 762.3359375 C306.71267633 756.10197397 307.80297503 749.92369613 309.1796875 743.765625 C316.34878242 710.45312824 318.24083176 673.91815903 311.7421875 640.3359375 C311.54133545 639.220979 311.54133545 639.220979 311.33642578 638.08349609 C307.26998036 615.82894932 299.40327733 594.4523945 290.64672852 573.67236328 C289.7421875 571.3359375 289.7421875 571.3359375 289.24194336 569.08935547 C289.07702393 568.51072754 288.91210449 567.93209961 288.7421875 567.3359375 C288.0821875 567.0059375 287.4221875 566.6759375 286.7421875 566.3359375 C285.68896484 564.78540039 285.68896484 564.78540039 284.578125 562.80859375 C284.17851563 562.09896484 283.77890625 561.38933594 283.3671875 560.65820312 C282.9546875 559.91248047 282.5421875 559.16675781 282.1171875 558.3984375 C281.69695313 557.65658203 281.27671875 556.91472656 280.84375 556.15039062 C277.7421875 550.59678115 277.7421875 550.59678115 277.7421875 548.3359375 C277.0821875 548.0059375 276.4221875 547.6759375 275.7421875 547.3359375 C274.70202868 545.69403391 273.708306 544.02247028 272.7421875 542.3359375 C251.4652225 508.30351237 224.20358906 484.07652206 189.27832031 464.7421875 C186.81944891 463.37877787 184.3691966 462.00120402 181.921875 460.6171875 C175.39232796 456.8638655 175.39232796 456.8638655 168.7421875 453.3359375 C168.7421875 452.6759375 168.7421875 452.0159375 168.7421875 451.3359375 C168.21286621 451.17158203 167.68354492 451.00722656 167.13818359 450.83789062 C161.02749516 448.87843459 155.22399457 446.4475277 149.3671875 443.8359375 C126.60946612 433.86413528 103.78522152 425.09652672 80.16390991 417.43730164 C75.72088718 415.99364071 71.29759923 414.50474471 66.88671875 412.96484375 C47.69658505 406.291804 28.13861624 401.14425356 8.48455811 396.04742432 C5.73804754 395.33486342 2.99225453 394.6195913 0.24658203 393.90380859 C-18.08238677 389.13074553 -36.42822651 384.47432965 -54.8828125 380.2109375 C-78.63705441 374.71369805 -102.07597106 368.39214165 -125.12304688 360.40136719 C-128.57765303 359.22723157 -132.0478168 358.11034351 -135.5234375 357 C-150.87527913 352.0765253 -165.73328773 346.502531 -180.36328125 339.68408203 C-183.2053076 338.36039196 -186.05838206 337.06344922 -188.9140625 335.76953125 C-227.10925904 318.2633995 -256.37775283 292.32012887 -271.43359375 252.49609375 C-273.21489416 247.58155533 -274.76599679 242.63099573 -276.1328125 237.5859375 C-276.41934692 236.54433472 -276.41934692 236.54433472 -276.71166992 235.48168945 C-279.95994231 222.62854815 -280.61054027 209.50077326 -280.57348633 196.30957031 C-280.5703233 193.96892726 -280.59392406 191.62955131 -280.61914062 189.2890625 C-280.68079318 174.77823335 -278.66379798 160.69534553 -274.5078125 146.7734375 C-274.25104736 145.90122559 -273.99428223 145.02901367 -273.72973633 144.13037109 C-267.31005108 122.92706782 -256.93023215 105.64822909 -243.2578125 88.3359375 C-242.79568359 87.74312988 -242.33355469 87.15032227 -241.85742188 86.53955078 C-240.70543409 85.09872272 -239.48706928 83.71143345 -238.2578125 82.3359375 C-237.5978125 82.3359375 -236.9378125 82.3359375 -236.2578125 82.3359375 C-236.2578125 81.6759375 -236.2578125 81.0159375 -236.2578125 80.3359375 C-234.89453125 78.9609375 -234.89453125 78.9609375 -232.9453125 77.3359375 C-229.67766039 74.57318303 -226.54978944 71.71783985 -223.4453125 68.7734375 C-185.60584099 34.43568504 -136.32795041 18.48657489 -87.12646484 8.92675781 C-84.84141264 8.45613429 -82.62099008 7.91925051 -80.375 7.296875 C-74.75015455 5.83907307 -68.94891492 5.28371133 -63.19091797 4.5859375 C-61.18509081 4.3422878 -59.18041261 4.08923742 -57.17578125 3.8359375 C-38.11252963 1.45605134 -19.21628329 0.01447536 0 0 Z M-171.25 128.078125 C-189.29087213 148.3653314 -195.50809472 171.86007568 -194.44873047 198.55517578 C-193.28499245 215.50527296 -185.08501825 231.49422837 -172.4921875 242.82421875 C-143.77069092 266.02512616 -106.35397126 275.08671474 -71.44824219 284.47216797 C-67.79144555 285.46220061 -64.14479856 286.48529484 -60.49926758 287.51586914 C-46.59760454 291.8793622 -46.59760454 291.8793622 -32.2578125 293.3359375 C-32.2578125 293.9959375 -32.2578125 294.6559375 -32.2578125 295.3359375 C-17.7378125 298.3059375 -3.2178125 301.2759375 11.7421875 304.3359375 C15.7648338 299.64285014 19.55166412 295.03779138 23.1171875 290.0234375 C23.56707031 289.40404297 24.01695312 288.78464844 24.48046875 288.14648438 C26.92960235 285.04944323 26.92960235 285.04944323 27.7421875 281.3359375 C28.4021875 281.3359375 29.0621875 281.3359375 29.7421875 281.3359375 C31.1854049 279.62024544 32.546056 277.83481467 33.8671875 276.0234375 C34.26824707 275.47945312 34.66930664 274.93546875 35.08251953 274.375 C36.99445948 271.77445998 38.87086185 269.15280451 40.7265625 266.51171875 C44.85805808 260.66445745 49.28120938 255.37113725 54.23779297 250.21875 C56.93374797 247.71688492 56.93374797 247.71688492 57.7421875 244.3359375 C58.4021875 244.3359375 59.0621875 244.3359375 59.7421875 244.3359375 C61.3129739 242.82182635 61.3129739 242.82182635 62.9296875 240.8359375 C63.54714844 240.10761719 64.16460938 239.37929688 64.80078125 238.62890625 C65.44144531 237.87222656 66.08210938 237.11554688 66.7421875 236.3359375 C67.99098134 234.93902496 69.24093377 233.54314707 70.4921875 232.1484375 C72.95102119 229.35083117 74.83785996 226.53867018 76.7421875 223.3359375 C78.38648579 221.64719871 80.05602968 219.98288235 81.7421875 218.3359375 C82.7529063 217.17854447 83.75249282 216.01135894 84.7421875 214.8359375 C87.94522099 211.06671122 91.29412863 207.59619351 95.03125 204.34375 C99.98542145 200.01820453 104.12952979 195.73282104 108.0390625 190.453125 C110.29055009 187.6542574 112.86359636 185.46294888 115.6171875 183.171875 C118.88276681 180.35051053 121.85169209 177.24777076 124.859375 174.15625 C126.7421875 172.3359375 126.7421875 172.3359375 128.7421875 171.3359375 C128.7421875 170.6759375 128.7421875 170.0159375 128.7421875 169.3359375 C129.32871094 169.08972656 129.91523437 168.84351563 130.51953125 168.58984375 C133.09701025 167.13576508 134.43639829 165.56138562 136.3046875 163.2734375 C141.67092698 157.04297219 148.03115422 152.13584812 154.57421875 147.19921875 C155.28964844 146.58433594 156.00507812 145.96945313 156.7421875 145.3359375 C156.7421875 144.6759375 156.7421875 144.0159375 156.7421875 143.3359375 C157.29777344 143.0884375 157.85335938 142.8409375 158.42578125 142.5859375 C161.16585245 141.10731561 163.39842705 139.31030505 165.8046875 137.3359375 C168.40905715 135.20544563 170.94038156 133.20380813 173.7421875 131.3359375 C173.7421875 130.6759375 173.7421875 130.0159375 173.7421875 129.3359375 C174.4021875 129.0059375 175.0621875 128.6759375 175.7421875 128.3359375 C167.76016577 123.9690198 159.75990067 119.63697718 151.7421875 115.3359375 C150.61756104 114.73023926 150.61756104 114.73023926 149.47021484 114.11230469 C126.45102436 101.80984558 101.73119951 93.56333769 76.7421875 86.3359375 C75.77168457 86.05492187 74.80118164 85.77390625 73.80126953 85.484375 C-0.9601853 64.2873201 -113.58711976 68.54762111 -171.25 128.078125 Z " fill="#7EC242" transform="translate(523.2578125,49.6640625)"/>
<path d="M0 0 C16.65457838 3.21098564 33.19957453 6.78719819 49.71313477 10.65673828 C53.32665009 11.50331509 56.94151764 12.34391136 60.55664062 13.18359375 C67.37548817 14.77072479 74.18899183 16.37958732 81 18 C82.02881287 18.24347168 83.05762573 18.48694336 84.11761475 18.73779297 C86.9489553 19.41074225 89.77759646 20.09389193 92.60546875 20.78125 C93.43621414 20.97795288 94.26695953 21.17465576 95.12287903 21.37731934 C100.76933125 22.76933125 100.76933125 22.76933125 103 25 C96.895205 35.55139995 90.7693257 45.82695145 83.12890625 55.34375 C81.31016347 57.61300705 79.63491317 59.91017861 78 62.3125 C77.34 63.199375 76.68 64.08625 76 65 C75.34 65 74.68 65 74 65 C73.75378906 65.55429687 73.50757813 66.10859375 73.25390625 66.6796875 C69.06096031 74.43859682 62.14267236 81.00622669 56.23046875 87.48828125 C54.00480649 89.99458744 51.90478439 92.56924393 49.8125 95.1875 C40.69957918 106.38782491 30.48923755 116.61105221 20.32574463 126.8494873 C19.27621429 127.90718883 18.22815452 128.96635161 17.18157959 130.02697754 C15.70436808 131.5219571 14.22048592 133.00996691 12.734375 134.49609375 C11.87038086 135.36419678 11.00638672 136.2322998 10.11621094 137.12670898 C8 139 8 139 6 139 C5.731875 139.598125 5.46375 140.19625 5.1875 140.8125 C4.00082594 142.99847854 2.90400887 144.41332594 1 146 C0.34 146 -0.32 146 -1 146 C-1.226875 146.5775 -1.45375 147.155 -1.6875 147.75 C-3.32916107 150.56427613 -5.43559053 152.02737733 -8 154 C-8.33 154.66 -8.66 155.32 -9 156 C-9.66 156 -10.32 156 -11 156 C-11 156.66 -11 157.32 -11 158 C-12.46875 159.4453125 -12.46875 159.4453125 -14.5 161.125 C-18.3499234 164.37893881 -21.86064335 167.84772718 -25.3359375 171.49609375 C-27 173 -27 173 -29 173 C-29.268125 173.598125 -29.53625 174.19625 -29.8125 174.8125 C-30.99917406 176.99847854 -32.09599113 178.41332594 -34 180 C-34.66 180 -35.32 180 -36 180 C-36.2475 180.5775 -36.495 181.155 -36.75 181.75 C-38.18299988 184.32939979 -39.78424676 186.06121592 -42 188 C-42.66 188 -43.32 188 -44 188 C-44.226875 188.5775 -44.45375 189.155 -44.6875 189.75 C-46.34761639 192.59591381 -48.39187957 193.99841921 -51 196 C-52.68211625 197.65107253 -54.34696686 199.31981043 -56 201 C-56.81299561 201.82346924 -57.62599121 202.64693848 -58.46362305 203.49536133 C-59.30449463 204.3489624 -60.14536621 205.20256348 -61.01171875 206.08203125 C-62.420678 207.50477487 -63.82965198 208.92750427 -65.23950195 210.34936523 C-66.21196884 211.33199785 -67.18264932 212.31640133 -68.15161133 213.30249023 C-69.55862126 214.7336325 -70.97256198 216.15795058 -72.38671875 217.58203125 C-73.64295044 218.85397339 -73.64295044 218.85397339 -74.92456055 220.15161133 C-77 222 -77 222 -79 222 C-79.33 222.99 -79.66 223.98 -80 225 C-83.08698945 224.40254543 -85.00741837 223.47555816 -87.4609375 221.5234375 C-88.09773438 221.01683594 -88.73453125 220.51023437 -89.390625 219.98828125 C-90.04546875 219.45589844 -90.7003125 218.92351562 -91.375 218.375 C-92.02210938 217.86582031 -92.66921875 217.35664062 -93.3359375 216.83203125 C-97.22938788 213.70000161 -100.54190613 210.42798896 -103.67480469 206.53295898 C-105.53469207 204.38147909 -107.77945418 202.76337462 -110 201 C-110 200.34 -110 199.68 -110 199 C-110.53625 198.78859375 -111.0725 198.5771875 -111.625 198.359375 C-114.90220124 196.4836085 -117.37108431 193.91795899 -120 191.25 C-120.52078125 190.73695313 -121.0415625 190.22390625 -121.578125 189.6953125 C-124.89068235 186.36602506 -127.51701042 182.98710826 -130 179 C-129.01 179 -128.02 179 -127 179 C-127 178.34 -127 177.68 -127 177 C-125.625 175.375 -125.625 175.375 -124 174 C-123.34 174 -122.68 174 -122 174 C-122 173.34 -122 172.68 -122 172 C-121.01 172 -120.02 172 -119 172 C-119 171.34 -119 170.68 -119 170 C-118.34 170 -117.68 170 -117 170 C-116.67 169.01 -116.34 168.02 -116 167 C-114.37301442 165.27132783 -112.71314938 163.64042134 -111 162 C-109.49728015 160.50272479 -107.99750209 159.00249376 -106.5 157.5 C-104.20532335 155.20532335 -101.91072751 152.91275315 -99.58984375 150.64453125 C-96.60841282 147.60014401 -93.82567735 144.42922381 -91.0625 141.1875 C-90.53398437 140.5680249 -90.00546875 139.9485498 -89.4609375 139.31030273 C-83.98357603 132.85327121 -79.04063747 126.45963841 -75 119 C-74.34 119 -73.68 119 -73 119 C-72.76023437 118.29230469 -72.52046875 117.58460938 -72.2734375 116.85546875 C-70.79362688 113.53724311 -68.90864807 111.13934592 -66.625 108.3125 C-58.17724476 97.6164001 -50.54444927 86.27688545 -44.2265625 74.1953125 C-41.93983283 70.10250334 -39.02062795 66.93707734 -35.56640625 63.765625 C-32.79482507 60.77889825 -31.17353566 57.78015826 -29.5 54.125 C-26.1882321 47.21058762 -22.55338957 40.53079149 -18.75 33.875 C-12.35045123 22.6628551 -6.15353606 11.3485237 0 0 Z " fill="#45AEE3" transform="translate(400,592)"/>
<path d="M0 0 C3.65329333 0.55275916 6.05238949 1.43396328 9.0625 3.5625 C11.63190974 5.35342964 14.19578232 7.126285 16.828125 8.82421875 C23.39762138 13.06343566 29.35804784 17.660104 35.28515625 22.73046875 C37.54774362 24.62192668 39.81687229 26.3403817 42.25 28 C43.61125 28.99 43.61125 28.99 45 30 C45 30.66 45 31.32 45 32 C45.5775 32.2475 46.155 32.495 46.75 32.75 C49.3002997 34.16683317 51.01785701 35.87627537 53 38 C51.56438314 41.18706942 49.79733671 43.62169105 47.5 46.25 C46.8915625 46.95640625 46.283125 47.6628125 45.65625 48.390625 C44 50 44 50 42 50 C41.65388672 51.0828125 41.65388672 51.0828125 41.30078125 52.1875 C39.75073816 55.53894452 37.84664545 57.44849612 35.1875 60 C34.33542969 60.825 33.48335937 61.65 32.60546875 62.5 C31.74566406 63.325 30.88585937 64.15 30 65 C26.42920563 68.4387465 23.3597347 71.97948224 20.375 75.9375 C19.49553352 77.09691727 18.61529856 78.25575193 17.734375 79.4140625 C17.28384766 80.00735352 16.83332031 80.60064453 16.36914062 81.21191406 C14.15403576 84.10482205 11.88700774 86.95623255 9.625 89.8125 C5.2227677 95.3873149 0.9449748 101.04661294 -3.29711914 106.74389648 C-7.23033774 112.01163391 -11.26038557 117.19840364 -15.3125 122.375 C-26.52097042 136.77360835 -34.37596579 151.29671241 -42.06567383 167.7746582 C-44.71593212 173.44335673 -47.50493026 179.0304595 -50.32421875 184.6171875 C-53.00245284 190.02359944 -55.50106704 195.50867128 -58 201 C-67.8262107 198.56294569 -77.6396506 196.07735566 -87.44921875 193.57421875 C-88.67536896 193.2615506 -89.90151917 192.94888245 -91.16482544 192.6267395 C-96.27136065 191.32453302 -101.37788519 190.02229445 -106.48364258 188.71704102 C-124.95537136 183.99610328 -143.4557105 179.42619247 -162 175 C-161.04857769 173.56004289 -160.09544759 172.12121408 -159.14160156 170.68286133 C-158.34571625 169.48080803 -158.34571625 169.48080803 -157.53375244 168.25447083 C-155.73702993 165.6134589 -153.79165272 163.14310986 -151.75 160.6875 C-149.4234754 157.8875547 -147.49274835 155.32821953 -146 152 C-145.34 152 -144.68 152 -144 152 C-143.73574219 151.42507813 -143.47148438 150.85015625 -143.19921875 150.2578125 C-141.93881469 147.8848042 -140.49796574 145.96544034 -138.8125 143.875 C-136.31007684 140.72513266 -133.98480548 137.5316306 -131.75 134.1875 C-128.44138965 129.37566258 -124.64764502 125.1660716 -120.64355469 120.93432617 C-118.01023857 118.19575047 -118.01023857 118.19575047 -116 115 C-115.34 115 -114.68 115 -114 115 C-113.61908203 114.12214844 -113.61908203 114.12214844 -113.23046875 113.2265625 C-111.86841699 110.76189741 -110.37698467 109.28130215 -108.3125 107.375 C-104.37939581 103.57801417 -101.41062376 99.48524227 -98.4453125 94.90625 C-97.96835937 94.2771875 -97.49140625 93.648125 -97 93 C-96.34 93 -95.68 93 -95 93 C-94.73832031 92.42121094 -94.47664062 91.84242188 -94.20703125 91.24609375 C-89.65342906 82.77256216 -81.15680322 76.05982665 -73.98828125 69.8671875 C-71.81411592 67.96687677 -71.81411592 67.96687677 -70 65 C-69.34 65 -68.68 65 -68 65 C-67.773125 64.443125 -67.54625 63.88625 -67.3125 63.3125 C-65.98273843 60.96958676 -64.43089335 59.36437486 -62.51782227 57.49145508 C-60.8291148 55.83208337 -59.17413656 54.14258098 -57.51953125 52.44921875 C-56.28393164 51.19523615 -55.04825327 49.94133117 -53.8125 48.6875 C-53.18408203 48.04232422 -52.55566406 47.39714844 -51.90820312 46.73242188 C-51.30556641 46.12333984 -50.70292969 45.51425781 -50.08203125 44.88671875 C-49.53780518 44.33201904 -48.9935791 43.77731934 -48.43286133 43.20581055 C-47 42 -47 42 -45 42 C-45 41.34 -45 40.68 -45 40 C-43.390625 38.44921875 -43.390625 38.44921875 -41.25 36.6875 C-38.90133191 34.75202352 -36.96742713 32.95853758 -35.08203125 30.55859375 C-32.77663927 27.72551355 -30.29825128 25.64024796 -27.4375 23.375 C-23.7222747 20.45449547 -23.7222747 20.45449547 -20.28515625 17.2265625 C-19 16 -19 16 -17 16 C-17 15.34 -17 14.68 -17 14 C-14.95162033 12.24762896 -12.90318009 10.6137324 -10.75 9 C-9.87021484 8.32324219 -9.87021484 8.32324219 -8.97265625 7.6328125 C-6.09930084 5.45035379 -3.31676616 3.44492783 0 2 C0 1.34 0 0.68 0 0 Z " fill="#46AEE3" transform="translate(697,179)"/>
<path d="M0 0 C15.19715495 3.55663298 30.33175953 7.32364505 45.4375 11.25 C46.52319275 11.53180115 47.6088855 11.81360229 48.72747803 12.10394287 C91.89944488 23.3336819 91.89944488 23.3336819 109 30 C108.35382795 33.32567641 107.10702611 35.72902383 105.32421875 38.59765625 C104.7832959 39.47824707 104.24237305 40.35883789 103.68505859 41.26611328 C103.12898926 42.1682959 102.57291992 43.07047852 102 44 C100.9817327 45.70468131 99.96737679 47.41170539 98.95703125 49.12109375 C98.44624023 49.98404053 97.93544922 50.8469873 97.40917969 51.73608398 C96.88227539 52.62755127 96.35537109 53.51901855 95.8125 54.4375 C94.96993652 55.86267944 94.96993652 55.86267944 94.11035156 57.31665039 C90.45759503 63.50501329 86.84043156 69.71280528 83.25 75.9375 C79.84620626 81.83271766 76.42217216 87.71465118 72.9375 93.5625 C72.3820752 94.50113892 72.3820752 94.50113892 71.81542969 95.45874023 C70.35608022 97.89453591 69.01667761 99.98332239 67 102 C65.17897034 101.81858826 65.17897034 101.81858826 62.94360352 101.20483398 C62.10414688 100.98057236 61.26469025 100.75631073 60.39979553 100.5252533 C59.48540207 100.26813065 58.57100861 100.011008 57.62890625 99.74609375 C56.20251076 99.36010765 56.20251076 99.36010765 54.74729919 98.96632385 C51.68257078 98.13440267 48.62258279 97.28633303 45.5625 96.4375 C43.56475228 95.89148241 41.56670807 95.34654837 39.56835938 94.80273438 C35.59908436 93.72148334 31.63106116 92.63580153 27.66381836 91.54711914 C11.7715612 87.19580123 -4.19877471 83.16718024 -20.1875 79.1875 C-22.22073105 78.68045052 -24.25393432 78.17328962 -26.28710938 77.66601562 C-31.1910884 76.44273165 -36.09543567 75.22093505 -41 74 C-39.55797628 70.17594075 -37.8077504 66.6547925 -35.84765625 63.0703125 C-35.23599609 61.94496094 -34.62433594 60.81960938 -33.99414062 59.66015625 C-33.02955634 57.89358833 -32.06392177 56.12759884 -31.09790039 54.36181641 C-27.04447614 47.03078011 -27.04447614 47.03078011 -23.51171875 39.4453125 C-21.09150927 33.92948624 -17.87404916 28.89153688 -14.75 23.75 C-13.78513672 22.14705078 -13.78513672 22.14705078 -12.80078125 20.51171875 C-8.63293582 13.61003506 -4.35998047 6.78181602 0 0 Z " fill="#45AEE3" transform="translate(485,433)"/>
<path d="M0 0 C0.66 0 1.32 0 2 0 C2 13.86 2 27.72 2 42 C5.63 42.99 9.26 43.98 13 45 C13.99 45.99 14.98 46.98 16 48 C15.32646484 48.32162109 14.65292969 48.64324219 13.95898438 48.97460938 C-1.85103513 56.51117695 -1.85103513 56.51117695 -17.5625 64.25 C-18.19148193 64.56461182 -18.82046387 64.87922363 -19.46850586 65.20336914 C-22.56668198 66.75830586 -25.64991954 68.33712175 -28.71875 69.94921875 C-47.36631419 79.65924961 -67.0498598 86.14084548 -87.14794922 92.13183594 C-90.98150591 93.29877033 -94.77327602 94.57259311 -98.5625 95.875 C-103.68312641 97.60525733 -108.66672749 99.09605551 -114 100 C-114.66 99.67 -115.32 99.34 -116 99 C-117.87056791 98.7724985 -119.74685958 98.59037189 -121.625 98.4375 C-123.12933594 98.31181641 -123.12933594 98.31181641 -124.6640625 98.18359375 C-125.43492188 98.12300781 -126.20578125 98.06242188 -127 98 C-127.17578125 95.67578125 -127.17578125 95.67578125 -127 93 C-124.1875 90.1875 -124.1875 90.1875 -121 88 C-120.01 88 -119.02 88 -118 88 C-117.67 87.01 -117.34 86.02 -117 85 C-114.4375 83.8125 -114.4375 83.8125 -112 83 C-112 82.34 -112 81.68 -112 81 C-110.989375 80.443125 -109.97875 79.88625 -108.9375 79.3125 C-106.22227346 77.77276788 -103.69929375 76.10218405 -101.1875 74.25 C-98 72 -98 72 -96 72 C-96 71.34 -96 70.68 -96 70 C-93.92967882 68.25159752 -91.85808173 66.61467291 -89.6875 65 C-88.79514648 64.32324219 -88.79514648 64.32324219 -87.88476562 63.6328125 C-80.42712186 58 -80.42712186 58 -77 58 C-77 57.34 -77 56.68 -77 56 C-75.865625 55.54625 -74.73125 55.0925 -73.5625 54.625 C-69.95278308 53.42904194 -69.95278308 53.42904194 -69 51 C-68.4225 50.731875 -67.845 50.46375 -67.25 50.1875 C-64.8177859 49.04541781 -64.8177859 49.04541781 -62.6875 46.6875 C-59.63653272 43.63653272 -56.5988915 41.37662646 -53 39 C-52.34 39 -51.68 39 -51 39 C-51 38.34 -51 37.68 -51 37 C-49.57421875 35.7109375 -49.57421875 35.7109375 -47.6875 34.375 C-47.07261719 33.92898438 -46.45773438 33.48296875 -45.82421875 33.0234375 C-44 32 -44 32 -41 32 C-41 31.34 -41 30.68 -41 30 C-38 28 -38 28 -35 28 C-35 27.34 -35 26.68 -35 26 C-34.34 26 -33.68 26 -33 26 C-32.505 24.515 -32.505 24.515 -32 23 C-29.5 22 -29.5 22 -27 21 C-26.505 19.515 -26.505 19.515 -26 18 C-23.6640625 16.45703125 -23.6640625 16.45703125 -20.625 14.8125 C-15.14540385 11.74497488 -10.16662769 8.31277216 -5.1796875 4.50390625 C-3 3 -3 3 -1 3 C-0.67 2.01 -0.34 1.02 0 0 Z " fill="#46AEE3" transform="translate(164,852)"/>
<path d="M0 0 C7.92 0 15.84 0 24 0 C23 5 23 5 22 7 C20.68 7 19.36 7 18 7 C18 7.66 18 8.32 18 9 C16.68 9 15.36 9 14 9 C14 9.66 14 10.32 14 11 C12.36485588 12.05075282 10.6914945 13.04259511 9 14 C7.49086591 15.04948585 5.99111648 16.11256843 4.5 17.1875 C0.60975236 19.93899759 -3.35905507 22.47394468 -7.4375 24.9375 C-12.46890267 27.99499965 -17.19724945 31.28571043 -21.91796875 34.796875 C-26.44015555 38.0294648 -31.12203879 41.00024312 -35.80273438 43.99658203 C-39.67907358 46.48294706 -43.50185733 49.00938175 -47.25 51.6875 C-51.86110085 54.96892421 -56.661918 57.88490292 -61.49609375 60.82421875 C-67.20967046 64.33614442 -72.75003041 68.11653725 -78.31103516 71.86328125 C-80.68122675 73.45848392 -83.0591836 75.04194482 -85.4375 76.625 C-87.2009375 77.800625 -87.2009375 77.800625 -89 79 C-89 72.4 -89 65.8 -89 59 C-91.07023438 58.22914062 -93.14046875 57.45828125 -95.2734375 56.6640625 C-97.27621078 55.91407 -99.27827187 55.16220592 -101.28027344 54.41015625 C-102.67244275 53.88833614 -104.06534463 53.36846612 -105.45898438 52.85058594 C-107.46159338 52.10602618 -109.4614666 51.35450225 -111.4609375 50.6015625 C-112.66540527 50.15119629 -113.86987305 49.70083008 -115.11083984 49.23681641 C-118 48 -118 48 -120 46 C-119.34 46 -118.68 46 -118 46 C-118 45.34 -118 44.68 -118 44 C-116.07942708 43.31640625 -114.15885417 42.6328125 -112.23828125 41.94921875 C-109.90598164 41.02420366 -109.90598164 41.02420366 -107.55078125 39.5078125 C-105.01281697 38.00757634 -102.67039557 37.10121885 -99.875 36.1875 C-94.76146753 34.39776363 -90.19597951 32.06813148 -85.5078125 29.3671875 C-81.21579938 27.02730496 -77.92420108 25.71861708 -73 26 C-72.505 24.515 -72.505 24.515 -72 23 C-70.35 23 -68.7 23 -67 23 C-67 22.34 -67 21.68 -67 21 C-65.35 21 -63.7 21 -62 21 C-62 20.34 -62 19.68 -62 19 C-59.02455559 17.86498523 -56.04403472 16.74390804 -53.0625 15.625 C-52.23169922 15.30789062 -51.40089844 14.99078125 -50.54492188 14.6640625 C-45.70287226 12.85535914 -40.99637634 11.43536904 -35.90795898 10.50537109 C-33.69281732 10.02860946 -33.69281732 10.02860946 -31 8 C-29.13812174 7.5823059 -27.26006715 7.23344062 -25.375 6.9375 C-21.87862912 6.63491174 -21.87862912 6.63491174 -19 5 C-17.14712498 4.92773498 -15.29166122 4.9161878 -13.4375 4.9375 C-12.42558594 4.94652344 -11.41367187 4.95554687 -10.37109375 4.96484375 C-9.58863281 4.97644531 -8.80617188 4.98804688 -8 5 C-8 4.34 -8 3.68 -8 3 C-5.36 2.67 -2.72 2.34 0 2 C0 1.34 0 0.68 0 0 Z " fill="#45ADE2" transform="translate(940,50)"/>
<path d="M0 0 C1.134375 0.020625 2.26875 0.04125 3.4375 0.0625 C-1.11062579 4.61062579 -7.51832844 5.39968177 -13.6796875 5.75390625 C-15.80284534 5.91389387 -15.80284534 5.91389387 -17.5625 8.0625 C-19.3978038 8.64633332 -21.25614552 9.15961381 -23.125 9.625 C-26.64024999 10.27672403 -26.64024999 10.27672403 -29.5625 12.0625 C-31.89547433 12.10342937 -34.22955225 12.10491723 -36.5625 12.0625 C-36.5625 12.7225 -36.5625 13.3825 -36.5625 14.0625 C-38.109375 14.18625 -38.109375 14.18625 -39.6875 14.3125 C-43.60024206 14.80483282 -43.60024206 14.80483282 -46.5 17.0625 C-50.38112387 19.5971115 -52.98611277 19.74688709 -57.5625 20.0625 C-57.2325 19.4025 -56.9025 18.7425 -56.5625 18.0625 C-54.9125 18.0625 -53.2625 18.0625 -51.5625 18.0625 C-51.5625 17.4025 -51.5625 16.7425 -51.5625 16.0625 C-49.9125 16.0625 -48.2625 16.0625 -46.5625 16.0625 C-46.5625 15.4025 -46.5625 14.7425 -46.5625 14.0625 C-43.58705559 12.92748523 -40.60653472 11.80640804 -37.625 10.6875 C-36.79419922 10.37039062 -35.96339844 10.05328125 -35.10742188 9.7265625 C-30.26537226 7.91785914 -25.55887634 6.49786904 -20.47045898 5.56787109 C-18.25531732 5.09110946 -18.25531732 5.09110946 -15.5625 3.0625 C-13.70062174 2.6448059 -11.82256715 2.29594062 -9.9375 2 C-6.21572368 1.40900927 -3.61978777 0.06350505 0 0 Z " fill="#EAE9F3" transform="translate(924.5625,54.9375)"/>
<path d="M0 0 C7.92 0 15.84 0 24 0 C23 5 23 5 22 7 C20.68 7 19.36 7 18 7 C17.67 7.66 17.34 8.32 17 9 C17.61277612 6.03824877 18.25372522 4.61941217 20 2 C18.27054347 2.14235457 16.54144346 2.28904382 14.8125 2.4375 C13.84957031 2.51871094 12.88664063 2.59992187 11.89453125 2.68359375 C6.87887652 3.2318637 2.06582439 4.45994738 -2.81640625 5.6953125 C-5.18172125 6.02535645 -6.74405968 5.72640255 -9 5 C-8.67 4.34 -8.34 3.68 -8 3 C-5.35139573 2.40644386 -2.70802678 2.25790731 0 2 C0 1.34 0 0.68 0 0 Z " fill="#F0EFF7" transform="translate(940,50)"/>
<path d="M0 0 C0.495 1.485 0.495 1.485 1 3 C0.195625 3.12375 -0.60875 3.2475 -1.4375 3.375 C-2.283125 3.58125 -3.12875 3.7875 -4 4 C-4.33 4.66 -4.66 5.32 -5 6 C-6.85546875 6.7109375 -6.85546875 6.7109375 -9.1875 7.375 C-13.36024242 8.68512321 -16.37069501 10.53207261 -20 13 C-23.61798477 14.77785167 -27.30608459 16.38709203 -31 18 C-32.72951263 18.77005678 -34.45871228 19.54081715 -36.1875 20.3125 C-37.45811722 20.87548801 -38.72886216 21.43818846 -40 22 C-40.66 21.34 -41.32 20.68 -42 20 C-41.34 20 -40.68 20 -40 20 C-40 19.34 -40 18.68 -40 18 C-38.07942708 17.31640625 -36.15885417 16.6328125 -34.23828125 15.94921875 C-31.90598164 15.02420366 -31.90598164 15.02420366 -29.55078125 13.5078125 C-27.01281697 12.00757634 -24.67039557 11.10121885 -21.875 10.1875 C-16.76146753 8.39776363 -12.19597951 6.06813148 -7.5078125 3.3671875 C-5.05757337 2.03138735 -2.60946463 0.98205658 0 0 Z " fill="#EDECF5" transform="translate(862,76)"/>
<path d="M0 0 C0.66 0.33 1.32 0.66 2 1 C-2.59621273 4.85595731 -7.2251336 8.52681668 -12.2265625 11.83984375 C-12.95230469 12.32219482 -13.67804687 12.8045459 -14.42578125 13.30151367 C-15.88148716 14.26029511 -17.34501731 15.20731046 -18.81640625 16.1418457 C-19.48800781 16.58488037 -20.15960938 17.02791504 -20.8515625 17.484375 C-21.45822754 17.87334961 -22.06489258 18.26232422 -22.68994141 18.66308594 C-24.46659776 20.16419798 -24.46659776 20.16419798 -24 24 C-22.68 24.66 -21.36 25.32 -20 26 C-22.97 26 -25.94 26 -29 26 C-29.375 23.8125 -29.375 23.8125 -29 21 C-26.1875 18.1875 -26.1875 18.1875 -23 16 C-22.01 16 -21.02 16 -20 16 C-19.67 15.01 -19.34 14.02 -19 13 C-16.4375 11.8125 -16.4375 11.8125 -14 11 C-14 10.34 -14 9.68 -14 9 C-12.4840625 8.1646875 -12.4840625 8.1646875 -10.9375 7.3125 C-7.09121554 5.12247273 -3.56539128 2.61947115 0 0 Z " fill="#EFEEF6" transform="translate(66,924)"/>
<path d="M0 0 C0.99 0 1.98 0 3 0 C1.5572683 3.36637397 -0.16467407 5.66502571 -3 8 C-4.32 8 -5.64 8 -7 8 C-7 8.66 -7 9.32 -7 10 C-8.74990921 11.329931 -10.50707623 12.65086732 -12.2890625 13.9375 C-15.81098886 16.61700593 -19.15039251 19.48466073 -22.5 22.375 C-23.13566895 22.92333496 -23.77133789 23.47166992 -24.42626953 24.03662109 C-25.95251498 25.35581935 -27.47649794 26.67763445 -29 28 C-29.66 27.67 -30.32 27.34 -31 27 C-29.04709472 25.16056628 -27.08818082 23.32840869 -25.125 21.5 C-24.56941406 20.97535156 -24.01382813 20.45070312 -23.44140625 19.91015625 C-19.2265625 16 -19.2265625 16 -17 16 C-17 15.34 -17 14.68 -17 14 C-14.95162033 12.24762896 -12.90318009 10.6137324 -10.75 9 C-10.16347656 8.54882812 -9.57695313 8.09765625 -8.97265625 7.6328125 C-6.09930084 5.45035379 -3.31676616 3.44492783 0 2 C0 1.34 0 0.68 0 0 Z " fill="#EEEDF6" transform="translate(697,179)"/>
<path d="M0 0 C0.67651367 1.78637695 0.67651367 1.78637695 1 4 C-0.1081543 5.72338867 -0.1081543 5.72338867 -1.82421875 7.41796875 C-2.44103516 8.03220703 -3.05785156 8.64644531 -3.69335938 9.27929688 C-4.68045898 10.22385742 -4.68045898 10.22385742 -5.6875 11.1875 C-6.32623047 11.82880859 -6.96496094 12.47011719 -7.62304688 13.13085938 C-12.88152482 18.28057873 -12.88152482 18.28057873 -17 19 C-15.625 16.5 -15.625 16.5 -14 14 C-13.34 14 -12.68 14 -12 14 C-11.773125 13.443125 -11.54625 12.88625 -11.3125 12.3125 C-9.62622733 9.34144815 -7.469646 7.35477875 -5 5 C-3.6078125 3.6078125 -3.6078125 3.6078125 -2.1875 2.1875 C-1.465625 1.465625 -0.74375 0.74375 0 0 Z " fill="#92C9EA" transform="translate(641,230)"/>
<path d="M0 0 C0.99 0.33 1.98 0.66 3 1 C1.35 1.66 -0.3 2.32 -2 3 C-2 3.66 -2 4.32 -2 5 C-2.99 5 -3.98 5 -5 5 C-5 5.66 -5 6.32 -5 7 C-6.32 7.33 -7.64 7.66 -9 8 C-9 8.66 -9 9.32 -9 10 C-11.23753535 11.77643163 -13.47222773 13.43237932 -15.8125 15.0625 C-16.77639648 15.75182617 -16.77639648 15.75182617 -17.75976562 16.45507812 C-20.5429759 18.41918817 -22.73802864 19.91267621 -26 21 C-26 20.34 -26 19.68 -26 19 C-24.26451831 17.55473264 -22.46024037 16.1912778 -20.625 14.875 C-19.62726563 14.15054688 -18.62953125 13.42609375 -17.6015625 12.6796875 C-15 11 -15 11 -13 11 C-13 10.34 -13 9.68 -13 9 C-11.57421875 7.7109375 -11.57421875 7.7109375 -9.6875 6.375 C-9.07261719 5.92898438 -8.45773438 5.48296875 -7.82421875 5.0234375 C-6 4 -6 4 -3 4 C-3 3.34 -3 2.68 -3 2 C-2.01 1.34 -1.02 0.68 0 0 Z " fill="#F2F2F8" transform="translate(126,880)"/>
<path d="M0 0 C-5.75 4 -5.75 4 -8 4 C-8 4.66 -8 5.32 -8 6 C-9.0725 6.598125 -10.145 7.19625 -11.25 7.8125 C-13.40453641 9.03558027 -15.33064445 10.25021742 -17.3125 11.75 C-19 13 -19 13 -21 13 C-21 13.99 -21 14.98 -21 16 C-22.65 16.33 -24.3 16.66 -26 17 C-26 16.34 -26 15.68 -26 15 C-23.92967882 13.25159752 -21.85808173 11.61467291 -19.6875 10 C-18.79514648 9.32324219 -18.79514648 9.32324219 -17.88476562 8.6328125 C-10.42712186 3 -10.42712186 3 -7 3 C-7 2.34 -7 1.68 -7 1 C-3.375 -1.125 -3.375 -1.125 0 0 Z " fill="#EEEEF6" transform="translate(94,907)"/>
<path d="M0 0 C0 0.66 0 1.32 0 2 C-1.45288086 3.20507812 -1.45288086 3.20507812 -3.46484375 4.53125 C-4.18220703 5.01207031 -4.89957031 5.49289062 -5.63867188 5.98828125 C-6.39728516 6.48714844 -7.15589844 6.98601563 -7.9375 7.5 C-9.42848653 8.48550262 -10.91690503 9.4749049 -12.40234375 10.46875 C-13.06741943 10.90638672 -13.73249512 11.34402344 -14.41772461 11.79492188 C-16.14823644 12.92931292 -16.14823644 12.92931292 -17 15 C-19.0625 15.625 -19.0625 15.625 -21 16 C-21 15.34 -21 14.68 -21 14 C-20.34 14 -19.68 14 -19 14 C-18.67 13.01 -18.34 12.02 -18 11 C-16.33333333 10.33333333 -14.66666667 9.66666667 -13 9 C-12.67 8.01 -12.34 7.02 -12 6 C-9.78515625 4.39453125 -9.78515625 4.39453125 -7.0625 2.8125 C-6.16660156 2.28269531 -5.27070313 1.75289062 -4.34765625 1.20703125 C-2 0 -2 0 0 0 Z " fill="#E5E8F4" transform="translate(150,864)"/>
<path d="M0 0 C0.59765625 1.8671875 0.59765625 1.8671875 1 4 C-1.71699158 7.69510854 -4.65638712 8.81537831 -9 10 C-7.84906278 6.54718834 -6.6794007 5.61917837 -3.9375 3.3125 C-2.83728516 2.37857422 -2.83728516 2.37857422 -1.71484375 1.42578125 C-1.14894531 0.95527344 -0.58304688 0.48476562 0 0 Z " fill="#B9D9F0" transform="translate(641,230)"/>
<path d="M0 0 C0.99 0 1.98 0 3 0 C1.55873214 3.36295835 -0.20592655 5.62927102 -3 8 C-3.99 8 -4.98 8 -6 8 C-4.95125002 5.37812506 -4.35068687 4.20628639 -1.875 2.75 C-1.25625 2.5025 -0.6375 2.255 0 2 C0 1.34 0 0.68 0 0 Z " fill="#9ECCEB" transform="translate(697,179)"/>
<path d="M0 0 C0 0.99 0 1.98 0 3 C-0.66 3 -1.32 3 -2 3 C-2.12375 3.61875 -2.2475 4.2375 -2.375 4.875 C-3 7 -3 7 -5 9 C-6.32 9 -7.64 9 -9 9 C-9 8.34 -9 7.68 -9 7 C-8.01 7 -7.02 7 -6 7 C-6 6.34 -6 5.68 -6 5 C-5.34 5 -4.68 5 -4 5 C-3.67 4.01 -3.34 3.02 -3 2 C-2.01 1.34 -1.02 0.68 0 0 Z " fill="#C5DCF0" transform="translate(287,757)"/>
<path d="M0 0 C0 3 0 3 -2.1875 5.48046875 C-3.115625 6.37378906 -4.04375 7.26710938 -5 8.1875 C-5.928125 9.08855469 -6.85625 9.98960937 -7.8125 10.91796875 C-8.534375 11.60503906 -9.25625 12.29210937 -10 13 C-10 9.07575145 -8.73405902 8.22546662 -6.125 5.375 C-5.04605469 4.18003906 -5.04605469 4.18003906 -3.9453125 2.9609375 C-2 1 -2 1 0 0 Z " fill="#E9EBF5" transform="translate(613,259)"/>
<path d="M0 0 C0.99 0.66 1.98 1.32 3 2 C1.625 3.5 1.625 3.5 0 5 C-0.66 5 -1.32 5 -2 5 C-2.33 6.65 -2.66 8.3 -3 10 C-3.66 10 -4.32 10 -5 10 C-3.84414715 6.08788267 -2.64465038 3.1254959 0 0 Z " fill="#A0CFEC" transform="translate(485,433)"/>
<path d="M0 0 C0.640625 1.8359375 0.640625 1.8359375 1 4 C-1.46026571 6.87030999 -3.85489214 8.90326143 -7 11 C-5.22054913 6.95579349 -2.60470327 3.53921513 0 0 Z " fill="#C9E0F2" transform="translate(566,312)"/>
<path d="M0 0 C-1 1.5 -1 1.5 -3 3 C-5.71846235 3.27345479 -8.25677199 3.13491285 -11 3 C-3.71428571 -1.85714286 -3.71428571 -1.85714286 0 0 Z " fill="#F3F2F8" transform="translate(899,63)"/>
<path d="M0 0 C-0.33 0.99 -0.66 1.98 -1 3 C-1.66 3 -2.32 3 -3 3 C-3 3.99 -3 4.98 -3 6 C-4.65 6.33 -6.3 6.66 -8 7 C-8 6.34 -8 5.68 -8 5 C-2.52380952 0 -2.52380952 0 0 0 Z " fill="#DAE8F5" transform="translate(76,917)"/>
<path d="M0 0 C0.625 1.8125 0.625 1.8125 1 4 C0.01 5.485 0.01 5.485 -1 7 C-1.66 7 -2.32 7 -3 7 C-3.33 7.99 -3.66 8.98 -4 10 C-4.33 9.34 -4.66 8.68 -5 8 C-4.00390625 6.0546875 -4.00390625 6.0546875 -2.5625 3.875 C-2.08941406 3.15054687 -1.61632812 2.42609375 -1.12890625 1.6796875 C-0.75636719 1.12539063 -0.38382812 0.57109375 0 0 Z " fill="#D3E7F5" transform="translate(468,461)"/>
<path d="M0 0 C2.97 0 5.94 0 9 0 C5.55549263 2.29633824 3.06187717 2.54016485 -1 3 C-0.67 2.01 -0.34 1.02 0 0 Z " fill="#E2E1EF" transform="translate(932,53)"/>
<path d="M0 0 C0.66 0.99 1.32 1.98 2 3 C5.06556598 3.73343428 5.06556598 3.73343428 8 4 C8 4.33 8 4.66 8 5 C5.03 5 2.06 5 -1 5 C-0.67 3.35 -0.34 1.7 0 0 Z " fill="#FAFAFC" transform="translate(38,945)"/>
<path d="M0 0 C0.99 0.33 1.98 0.66 3 1 C0.36 2.65 -2.28 4.3 -5 6 C-5.33 5.34 -5.66 4.68 -6 4 C-3.1875 1.9375 -3.1875 1.9375 0 0 Z " fill="#EBEAF4" transform="translate(106,895)"/>
<path d="M0 0 C0.66 0.33 1.32 0.66 2 1 C0.68 3.64 -0.64 6.28 -2 9 C-2.66 9 -3.32 9 -4 9 C-2.94124926 5.59687262 -1.99097846 2.98646769 0 0 Z " fill="#BEDDF1" transform="translate(325,711)"/>
<path d="" fill="#7EC242" transform="translate(0,0)"/>
</svg>
